<?xml version="1.0" encoding="UTF-8"?>
<svg id="Layer_1" xmlns="http://www.w3.org/2000/svg" viewBox="0 0 167.33 237.02">
  <defs>
    <style>
      .cls-1 {
        fill: #fbb040;
      }
    </style>
  </defs>
  <g>
    <polygon points="85.52 232.88 122.75 152.28 85.52 152.28 85.52 232.88"/>
    <polygon points="44.52 148.56 80.39 148.56 63.23 116.11 44.52 148.56"/>
    <polygon points="81.81 232.88 81.81 152.28 44.58 152.28 81.81 232.88"/>
    <polygon points="137.32 113.32 106.78 113.32 125.44 145.69 137.32 113.32"/>
    <polygon points="122.81 148.56 104.1 116.11 86.94 148.56 122.81 148.56"/>
    <polygon points="126.98 152.28 126.19 154.43 126 154.1 87.7 237.02 167.07 152.28 126.98 152.28"/>
    <polygon points="83.66 146.8 101.37 113.32 83.66 113.32 65.95 113.32 83.66 146.8"/>
    <polygon points="128.35 148.56 167.33 148.56 140.65 115.02 128.35 148.56"/>
    <polygon points="41.89 145.69 60.55 113.32 30.01 113.32 41.89 145.69"/>
    <polygon points="41.33 154.1 41.14 154.43 40.35 152.28 .26 152.28 79.63 237.02 41.33 154.1"/>
    <polygon points="38.98 148.56 26.67 115.02 0 148.56 38.98 148.56"/>
  </g>
  <g>
    <g>
      <rect class="cls-1" x="38.92" y="95.26" width="89.5" height="7.1"/>
      <path class="cls-1" d="M30.9,61.37c11.47,0,20.24-3.25,26.96-7.99C39.14,28.85,9.67,30.5,9.67,30.5l15.84,30.48,3.32.31s.76.07,2.07.07Z"/>
      <path class="cls-1" d="M138.51,61.3l3.29-.29,15.85-30.51s-29.47-1.65-48.19,22.87c6.72,4.74,15.5,7.99,26.96,7.99,1.31,0,2.08-.07,2.08-.07Z"/>
      <rect class="cls-1" x="69.33" y="5.94" width="28.67" height="28.67" transform="translate(10.17 65.1) rotate(-45)"/>
      <path class="cls-1" d="M90.99,40.52l-7.32,7.32-7.32-7.32c-16.35,28.9-47.99,25.92-47.99,25.92l10.57,22.9h89.5l10.57-22.9s-31.64,2.99-47.99-25.92ZM45.51,79.44c-2.08,0-3.77-1.69-3.77-3.77s1.69-3.77,3.77-3.77,3.77,1.69,3.77,3.77-1.69,3.77-3.77,3.77ZM63.23,76.61c-2.08,0-3.77-1.69-3.77-3.77s1.69-3.77,3.77-3.77,3.77,1.69,3.77,3.77-1.69,3.77-3.77,3.77ZM83.66,81.41l-11.19-11.19,11.19-11.19,11.19,11.19-11.19,11.19ZM104.1,76.61c-2.08,0-3.77-1.69-3.77-3.77s1.69-3.77,3.77-3.77,3.77,1.69,3.77,3.77-1.69,3.77-3.77,3.77ZM121.81,79.44c-2.08,0-3.77-1.69-3.77-3.77s1.69-3.77,3.77-3.77,3.77,1.69,3.77,3.77-1.69,3.77-3.77,3.77Z"/>
    </g>
    <g>
      <path class="cls-1" d="M56.28,10.72c.13.84.22,1.69.22,2.57,0,9.32-7.56,16.88-16.88,16.88-3.49,0-6.73-1.06-9.42-2.87,2.65,4.73,7.7,7.92,13.51,7.92,8.55,0,15.49-6.93,15.49-15.49,0-3.37-1.09-6.47-2.91-9.01Z"/>
      <path class="cls-1" d="M111.05,10.72c-.13.84-.22,1.69-.22,2.57,0,9.32,7.56,16.88,16.88,16.88,3.49,0,6.73-1.06,9.42-2.87-2.65,4.73-7.7,7.92-13.51,7.92-8.55,0-15.49-6.93-15.49-15.49,0-3.37,1.09-6.47,2.91-9.01Z"/>
    </g>
  </g>
</svg>