<?xml version="1.0" encoding="UTF-8" standalone="no"?>
<!DOCTYPE svg PUBLIC "-//W3C//DTD SVG 1.1//EN"
 "http://www.w3.org/Graphics/SVG/1.1/DTD/svg11.dtd">
<!-- Generated by graphviz version 2.40.1 (20161225.0304)
 -->
<!-- Title: %0 Pages: 1 -->
<svg width="1128pt" height="1952pt"
 viewBox="0.00 0.00 1127.89 1951.80" xmlns="http://www.w3.org/2000/svg" xmlns:xlink="http://www.w3.org/1999/xlink">
<g id="graph0" class="graph" transform="scale(1 1) rotate(0) translate(144 1807.8)">
<title>%0</title>
<polygon fill="#ffffff" stroke="transparent" points="-144,144 -144,-1807.8 983.8852,-1807.8 983.8852,144 -144,144"/>
<!-- admins -->
<g id="node1" class="node">
<title>admins</title>
<polygon fill="#4477c9" stroke="transparent" points="2.5,0 2.5,-178 73.5,-178 73.5,0 2.5,0"/>
<polygon fill="#add8e6" stroke="transparent" points="3,-160 3,-178 74,-178 74,-160 3,-160"/>
<polygon fill="none" stroke="#000000" points="3,-160 3,-178 74,-178 74,-160 3,-160"/>
<text text-anchor="start" x="23.2513" y="-166.9" font-family="Times,serif" font-weight="bold" font-style="italic" font-size="9.00" fill="#000000"> admins </text>
<polygon fill="none" stroke="#000000" points="3,-140 3,-160 74,-160 74,-140 3,-140"/>
<text text-anchor="start" x="7.8825" y="-146.9" font-family="Times,serif" font-size="9.00" fill="#000000">username: String</text>
<polygon fill="none" stroke="#000000" points="3,-120 3,-140 74,-140 74,-120 3,-120"/>
<text text-anchor="start" x="8" y="-126.9" font-family="Times,serif" font-size="9.00" fill="#000000">email: String</text>
<polygon fill="none" stroke="#000000" points="3,-100 3,-120 74,-120 74,-100 3,-100"/>
<text text-anchor="start" x="8" y="-106.9" font-family="Times,serif" font-size="9.00" fill="#000000">password: String</text>
<polygon fill="none" stroke="#000000" points="3,-80 3,-100 74,-100 74,-80 3,-80"/>
<text text-anchor="start" x="8" y="-86.9" font-family="Times,serif" font-size="9.00" fill="#000000">role: String</text>
<polygon fill="none" stroke="#000000" points="3,-60 3,-80 74,-80 74,-60 3,-60"/>
<text text-anchor="start" x="8" y="-66.9" font-family="Times,serif" font-size="9.00" fill="#000000">_id: ObjectId</text>
<polygon fill="none" stroke="#000000" points="3,-40 3,-60 74,-60 74,-40 3,-40"/>
<text text-anchor="start" x="8" y="-46.9" font-family="Times,serif" font-size="9.00" fill="#000000">createdAt: Date</text>
<polygon fill="none" stroke="#000000" points="3,-20 3,-40 74,-40 74,-20 3,-20"/>
<text text-anchor="start" x="8" y="-26.9" font-family="Times,serif" font-size="9.00" fill="#000000">updatedAt: Date</text>
<polygon fill="none" stroke="#000000" points="3,0 3,-20 74,-20 74,0 3,0"/>
<text text-anchor="start" x="8" y="-6.9" font-family="Times,serif" font-size="9.00" fill="#000000">__v: Number</text>
</g>
<!-- carts -->
<g id="node2" class="node">
<title>carts</title>
<polygon fill="#4477c9" stroke="transparent" points="266.5772,-748 266.5772,-906 355.5772,-906 355.5772,-748 266.5772,-748"/>
<polygon fill="#add8e6" stroke="transparent" points="267.0772,-888 267.0772,-906 356.0772,-906 356.0772,-888 267.0772,-888"/>
<polygon fill="none" stroke="#000000" points="267.0772,-888 267.0772,-906 356.0772,-906 356.0772,-888 267.0772,-888"/>
<text text-anchor="start" x="300.8334" y="-894.9" font-family="Times,serif" font-weight="bold" font-style="italic" font-size="9.00" fill="#000000"> carts </text>
<polygon fill="none" stroke="#000000" points="267.0772,-868 267.0772,-888 356.0772,-888 356.0772,-868 267.0772,-868"/>
<text text-anchor="start" x="272.0772" y="-874.9" font-family="Times,serif" font-size="9.00" fill="#000000">user_id: ObjectId</text>
<polygon fill="none" stroke="#000000" points="267.0772,-848 267.0772,-868 356.0772,-868 356.0772,-848 267.0772,-848"/>
<text text-anchor="start" x="272.0772" y="-854.9" font-family="Times,serif" font-size="9.00" fill="#000000">items: Array</text>
<polygon fill="none" stroke="#000000" points="267.0772,-828 267.0772,-848 356.0772,-848 356.0772,-828 267.0772,-828"/>
<text text-anchor="start" x="271.7081" y="-834.9" font-family="Times,serif" font-size="9.00" fill="#000000">totalAmount: Number</text>
<polygon fill="none" stroke="#000000" points="267.0772,-808 267.0772,-828 356.0772,-828 356.0772,-808 267.0772,-808"/>
<text text-anchor="start" x="272.0772" y="-814.9" font-family="Times,serif" font-size="9.00" fill="#000000">_id: ObjectId</text>
<polygon fill="none" stroke="#000000" points="267.0772,-788 267.0772,-808 356.0772,-808 356.0772,-788 267.0772,-788"/>
<text text-anchor="start" x="272.0772" y="-794.9" font-family="Times,serif" font-size="9.00" fill="#000000">createdAt: Date</text>
<polygon fill="none" stroke="#000000" points="267.0772,-768 267.0772,-788 356.0772,-788 356.0772,-768 267.0772,-768"/>
<text text-anchor="start" x="272.0772" y="-774.9" font-family="Times,serif" font-size="9.00" fill="#000000">updatedAt: Date</text>
<polygon fill="none" stroke="#000000" points="267.0772,-748 267.0772,-768 356.0772,-768 356.0772,-748 267.0772,-748"/>
<text text-anchor="start" x="272.0772" y="-754.9" font-family="Times,serif" font-size="9.00" fill="#000000">__v: Number</text>
</g>
<!-- coupons -->
<g id="node3" class="node">
<title>coupons</title>
<polygon fill="#4477c9" stroke="transparent" points="263.0772,-1418 263.0772,-1596 359.0772,-1596 359.0772,-1418 263.0772,-1418"/>
<polygon fill="#add8e6" stroke="transparent" points="263.0772,-1578 263.0772,-1596 359.0772,-1596 359.0772,-1578 263.0772,-1578"/>
<polygon fill="none" stroke="#000000" points="263.0772,-1578 263.0772,-1596 359.0772,-1596 359.0772,-1578 263.0772,-1578"/>
<text text-anchor="start" x="293.8296" y="-1584.9" font-family="Times,serif" font-weight="bold" font-style="italic" font-size="9.00" fill="#000000"> coupons </text>
<polygon fill="none" stroke="#000000" points="263.0772,-1558 263.0772,-1578 359.0772,-1578 359.0772,-1558 263.0772,-1558"/>
<text text-anchor="start" x="268.0772" y="-1564.9" font-family="Times,serif" font-size="9.00" fill="#000000">code: String</text>
<polygon fill="none" stroke="#000000" points="263.0772,-1538 263.0772,-1558 359.0772,-1558 359.0772,-1538 263.0772,-1538"/>
<text text-anchor="start" x="268.0772" y="-1544.9" font-family="Times,serif" font-size="9.00" fill="#000000">discountType: String</text>
<polygon fill="none" stroke="#000000" points="263.0772,-1518 263.0772,-1538 359.0772,-1538 359.0772,-1518 263.0772,-1518"/>
<text text-anchor="start" x="267.964" y="-1524.9" font-family="Times,serif" font-size="9.00" fill="#000000">discountValue: Number</text>
<polygon fill="none" stroke="#000000" points="263.0772,-1498 263.0772,-1518 359.0772,-1518 359.0772,-1498 263.0772,-1498"/>
<text text-anchor="start" x="268.0772" y="-1504.9" font-family="Times,serif" font-size="9.00" fill="#000000">expirationDate: Date</text>
<polygon fill="none" stroke="#000000" points="263.0772,-1478 263.0772,-1498 359.0772,-1498 359.0772,-1478 263.0772,-1478"/>
<text text-anchor="start" x="268.0772" y="-1484.9" font-family="Times,serif" font-size="9.00" fill="#000000">_id: ObjectId</text>
<polygon fill="none" stroke="#000000" points="263.0772,-1458 263.0772,-1478 359.0772,-1478 359.0772,-1458 263.0772,-1458"/>
<text text-anchor="start" x="268.0772" y="-1464.9" font-family="Times,serif" font-size="9.00" fill="#000000">createdAt: Date</text>
<polygon fill="none" stroke="#000000" points="263.0772,-1438 263.0772,-1458 359.0772,-1458 359.0772,-1438 263.0772,-1438"/>
<text text-anchor="start" x="268.0772" y="-1444.9" font-family="Times,serif" font-size="9.00" fill="#000000">updatedAt: Date</text>
<polygon fill="none" stroke="#000000" points="263.0772,-1418 263.0772,-1438 359.0772,-1438 359.0772,-1418 263.0772,-1418"/>
<text text-anchor="start" x="268.0772" y="-1424.9" font-family="Times,serif" font-size="9.00" fill="#000000">__v: Number</text>
</g>
<!-- orders -->
<g id="node6" class="node">
<title>orders</title>
<polygon fill="#4477c9" stroke="transparent" points="524.3732,-1358 524.3732,-1576 613.3732,-1576 613.3732,-1358 524.3732,-1358"/>
<polygon fill="#add8e6" stroke="transparent" points="524.8732,-1558 524.8732,-1576 613.8732,-1576 613.8732,-1558 524.8732,-1558"/>
<polygon fill="none" stroke="#000000" points="524.8732,-1558 524.8732,-1576 613.8732,-1576 613.8732,-1558 524.8732,-1558"/>
<text text-anchor="start" x="555.8795" y="-1564.9" font-family="Times,serif" font-weight="bold" font-style="italic" font-size="9.00" fill="#000000"> orders </text>
<polygon fill="none" stroke="#000000" points="524.8732,-1538 524.8732,-1558 613.8732,-1558 613.8732,-1538 524.8732,-1538"/>
<text text-anchor="start" x="529.8732" y="-1544.9" font-family="Times,serif" font-size="9.00" fill="#000000">user_id: ObjectId</text>
<polygon fill="none" stroke="#000000" points="524.8732,-1518 524.8732,-1538 613.8732,-1538 613.8732,-1518 524.8732,-1518"/>
<text text-anchor="start" x="529.8732" y="-1524.9" font-family="Times,serif" font-size="9.00" fill="#000000">items: Array</text>
<polygon fill="none" stroke="#000000" points="524.8732,-1498 524.8732,-1518 613.8732,-1518 613.8732,-1498 524.8732,-1498"/>
<text text-anchor="start" x="529.5041" y="-1504.9" font-family="Times,serif" font-size="9.00" fill="#000000">totalAmount: Number</text>
<polygon fill="none" stroke="#000000" points="524.8732,-1478 524.8732,-1498 613.8732,-1498 613.8732,-1478 524.8732,-1478"/>
<text text-anchor="start" x="529.8732" y="-1484.9" font-family="Times,serif" font-size="9.00" fill="#000000">coupon_id: ObjectId</text>
<polygon fill="none" stroke="#000000" points="524.8732,-1458 524.8732,-1478 613.8732,-1478 613.8732,-1458 524.8732,-1458"/>
<text text-anchor="start" x="529.8732" y="-1464.9" font-family="Times,serif" font-size="9.00" fill="#000000">payment_id: ObjectId</text>
<polygon fill="none" stroke="#000000" points="524.8732,-1438 524.8732,-1458 613.8732,-1458 613.8732,-1438 524.8732,-1438"/>
<text text-anchor="start" x="529.8732" y="-1444.9" font-family="Times,serif" font-size="9.00" fill="#000000">status: String</text>
<polygon fill="none" stroke="#000000" points="524.8732,-1418 524.8732,-1438 613.8732,-1438 613.8732,-1418 524.8732,-1418"/>
<text text-anchor="start" x="529.8732" y="-1424.9" font-family="Times,serif" font-size="9.00" fill="#000000">_id: ObjectId</text>
<polygon fill="none" stroke="#000000" points="524.8732,-1398 524.8732,-1418 613.8732,-1418 613.8732,-1398 524.8732,-1398"/>
<text text-anchor="start" x="529.8732" y="-1404.9" font-family="Times,serif" font-size="9.00" fill="#000000">createdAt: Date</text>
<polygon fill="none" stroke="#000000" points="524.8732,-1378 524.8732,-1398 613.8732,-1398 613.8732,-1378 524.8732,-1378"/>
<text text-anchor="start" x="529.8732" y="-1384.9" font-family="Times,serif" font-size="9.00" fill="#000000">updatedAt: Date</text>
<polygon fill="none" stroke="#000000" points="524.8732,-1358 524.8732,-1378 613.8732,-1378 613.8732,-1358 524.8732,-1358"/>
<text text-anchor="start" x="529.8732" y="-1364.9" font-family="Times,serif" font-size="9.00" fill="#000000">__v: Number</text>
</g>
<!-- coupons&#45;&gt;orders -->
<g id="edge5" class="edge">
<title>coupons:4&#45;&gt;orders:3</title>
<path fill="none" stroke="#000000" stroke-dasharray="5,2" d="M359.0772,-1488C432.7643,-1488 451.1861,-1488 524.8732,-1488"/>
<text text-anchor="middle" x="441.7252" y="-1492.2" font-family="Times,serif" font-size="14.00" fill="#000000">coupons&#45;orders</text>
<text text-anchor="middle" x="519.8199" y="-1475.4" font-family="Times,serif" font-size="14.00" fill="#000000">N</text>
<text text-anchor="middle" x="362.5772" y="-1475.4" font-family="Times,serif" font-size="14.00" fill="#000000">1</text>
</g>
<!-- inventories -->
<g id="node4" class="node">
<title>inventories</title>
<polygon fill="#4477c9" stroke="transparent" points="268.5772,-268 268.5772,-406 353.5772,-406 353.5772,-268 268.5772,-268"/>
<polygon fill="#add8e6" stroke="transparent" points="269.0772,-388 269.0772,-406 354.0772,-406 354.0772,-388 269.0772,-388"/>
<polygon fill="none" stroke="#000000" points="269.0772,-388 269.0772,-406 354.0772,-406 354.0772,-388 269.0772,-388"/>
<text text-anchor="start" x="289.3323" y="-394.9" font-family="Times,serif" font-weight="bold" font-style="italic" font-size="9.00" fill="#000000"> inventories </text>
<polygon fill="none" stroke="#000000" points="269.0772,-368 269.0772,-388 354.0772,-388 354.0772,-368 269.0772,-368"/>
<text text-anchor="start" x="273.9621" y="-374.9" font-family="Times,serif" font-size="9.00" fill="#000000">product_id: ObjectId</text>
<polygon fill="none" stroke="#000000" points="269.0772,-348 269.0772,-368 354.0772,-368 354.0772,-348 269.0772,-348"/>
<text text-anchor="start" x="274.0772" y="-354.9" font-family="Times,serif" font-size="9.00" fill="#000000">quantity: Number</text>
<polygon fill="none" stroke="#000000" points="269.0772,-328 269.0772,-348 354.0772,-348 354.0772,-328 269.0772,-328"/>
<text text-anchor="start" x="274.0772" y="-334.9" font-family="Times,serif" font-size="9.00" fill="#000000">_id: ObjectId</text>
<polygon fill="none" stroke="#000000" points="269.0772,-308 269.0772,-328 354.0772,-328 354.0772,-308 269.0772,-308"/>
<text text-anchor="start" x="274.0772" y="-314.9" font-family="Times,serif" font-size="9.00" fill="#000000">createdAt: Date</text>
<polygon fill="none" stroke="#000000" points="269.0772,-288 269.0772,-308 354.0772,-308 354.0772,-288 269.0772,-288"/>
<text text-anchor="start" x="274.0772" y="-294.9" font-family="Times,serif" font-size="9.00" fill="#000000">updatedAt: Date</text>
<polygon fill="none" stroke="#000000" points="269.0772,-268 269.0772,-288 354.0772,-288 354.0772,-268 269.0772,-268"/>
<text text-anchor="start" x="274.0772" y="-274.9" font-family="Times,serif" font-size="9.00" fill="#000000">__v: Number</text>
</g>
<!-- notifications -->
<g id="node5" class="node">
<title>notifications</title>
<polygon fill="#4477c9" stroke="transparent" points="275.0772,-1188 275.0772,-1346 347.0772,-1346 347.0772,-1188 275.0772,-1188"/>
<polygon fill="#add8e6" stroke="transparent" points="275.0772,-1328 275.0772,-1346 347.0772,-1346 347.0772,-1328 275.0772,-1328"/>
<polygon fill="none" stroke="#000000" points="275.0772,-1328 275.0772,-1346 347.0772,-1346 347.0772,-1328 275.0772,-1328"/>
<text text-anchor="start" x="286.3312" y="-1334.9" font-family="Times,serif" font-weight="bold" font-style="italic" font-size="9.00" fill="#000000"> notifications </text>
<polygon fill="none" stroke="#000000" points="275.0772,-1308 275.0772,-1328 347.0772,-1328 347.0772,-1308 275.0772,-1308"/>
<text text-anchor="start" x="279.7126" y="-1314.9" font-family="Times,serif" font-size="9.00" fill="#000000">user_id: ObjectId</text>
<polygon fill="none" stroke="#000000" points="275.0772,-1288 275.0772,-1308 347.0772,-1308 347.0772,-1288 275.0772,-1288"/>
<text text-anchor="start" x="280.0772" y="-1294.9" font-family="Times,serif" font-size="9.00" fill="#000000">message: String</text>
<polygon fill="none" stroke="#000000" points="275.0772,-1268 275.0772,-1288 347.0772,-1288 347.0772,-1268 275.0772,-1268"/>
<text text-anchor="start" x="280.0772" y="-1274.9" font-family="Times,serif" font-size="9.00" fill="#000000">isRead: Boolean</text>
<polygon fill="none" stroke="#000000" points="275.0772,-1248 275.0772,-1268 347.0772,-1268 347.0772,-1248 275.0772,-1248"/>
<text text-anchor="start" x="280.0772" y="-1254.9" font-family="Times,serif" font-size="9.00" fill="#000000">_id: ObjectId</text>
<polygon fill="none" stroke="#000000" points="275.0772,-1228 275.0772,-1248 347.0772,-1248 347.0772,-1228 275.0772,-1228"/>
<text text-anchor="start" x="280.0772" y="-1234.9" font-family="Times,serif" font-size="9.00" fill="#000000">createdAt: Date</text>
<polygon fill="none" stroke="#000000" points="275.0772,-1208 275.0772,-1228 347.0772,-1228 347.0772,-1208 275.0772,-1208"/>
<text text-anchor="start" x="280.0772" y="-1214.9" font-family="Times,serif" font-size="9.00" fill="#000000">updatedAt: Date</text>
<polygon fill="none" stroke="#000000" points="275.0772,-1188 275.0772,-1208 347.0772,-1208 347.0772,-1188 275.0772,-1188"/>
<text text-anchor="start" x="280.0772" y="-1194.9" font-family="Times,serif" font-size="9.00" fill="#000000">__v: Number</text>
</g>
<!-- returns -->
<g id="node9" class="node">
<title>returns</title>
<polygon fill="#4477c9" stroke="transparent" points="763.8852,-1298 763.8852,-1456 839.8852,-1456 839.8852,-1298 763.8852,-1298"/>
<polygon fill="#add8e6" stroke="transparent" points="763.8852,-1438 763.8852,-1456 839.8852,-1456 839.8852,-1438 763.8852,-1438"/>
<polygon fill="none" stroke="#000000" points="763.8852,-1438 763.8852,-1456 839.8852,-1456 839.8852,-1438 763.8852,-1438"/>
<text text-anchor="start" x="787.141" y="-1444.9" font-family="Times,serif" font-weight="bold" font-style="italic" font-size="9.00" fill="#000000"> returns </text>
<polygon fill="none" stroke="#000000" points="763.8852,-1418 763.8852,-1438 839.8852,-1438 839.8852,-1418 763.8852,-1418"/>
<text text-anchor="start" x="768.5226" y="-1424.9" font-family="Times,serif" font-size="9.00" fill="#000000">order_id: ObjectId</text>
<polygon fill="none" stroke="#000000" points="763.8852,-1398 763.8852,-1418 839.8852,-1418 839.8852,-1398 763.8852,-1398"/>
<text text-anchor="start" x="768.8852" y="-1404.9" font-family="Times,serif" font-size="9.00" fill="#000000">reason: String</text>
<polygon fill="none" stroke="#000000" points="763.8852,-1378 763.8852,-1398 839.8852,-1398 839.8852,-1378 763.8852,-1378"/>
<text text-anchor="start" x="768.8852" y="-1384.9" font-family="Times,serif" font-size="9.00" fill="#000000">status: String</text>
<polygon fill="none" stroke="#000000" points="763.8852,-1358 763.8852,-1378 839.8852,-1378 839.8852,-1358 763.8852,-1358"/>
<text text-anchor="start" x="768.8852" y="-1364.9" font-family="Times,serif" font-size="9.00" fill="#000000">_id: ObjectId</text>
<polygon fill="none" stroke="#000000" points="763.8852,-1338 763.8852,-1358 839.8852,-1358 839.8852,-1338 763.8852,-1338"/>
<text text-anchor="start" x="768.8852" y="-1344.9" font-family="Times,serif" font-size="9.00" fill="#000000">createdAt: Date</text>
<polygon fill="none" stroke="#000000" points="763.8852,-1318 763.8852,-1338 839.8852,-1338 839.8852,-1318 763.8852,-1318"/>
<text text-anchor="start" x="768.8852" y="-1324.9" font-family="Times,serif" font-size="9.00" fill="#000000">updatedAt: Date</text>
<polygon fill="none" stroke="#000000" points="763.8852,-1298 763.8852,-1318 839.8852,-1318 839.8852,-1298 763.8852,-1298"/>
<text text-anchor="start" x="768.8852" y="-1304.9" font-family="Times,serif" font-size="9.00" fill="#000000">__v: Number</text>
</g>
<!-- orders&#45;&gt;returns -->
<g id="edge8" class="edge">
<title>orders:6&#45;&gt;returns:0</title>
<path fill="none" stroke="#000000" stroke-dasharray="5,2" d="M613.3732,-1428C680.2674,-1428 696.991,-1428 763.8852,-1428"/>
<text text-anchor="middle" x="688.6292" y="-1432.2" font-family="Times,serif" font-size="14.00" fill="#000000">orders&#45;returns</text>
<text text-anchor="middle" x="758.8319" y="-1415.4" font-family="Times,serif" font-size="14.00" fill="#000000">N</text>
<text text-anchor="middle" x="616.8732" y="-1415.4" font-family="Times,serif" font-size="14.00" fill="#000000">1</text>
</g>
<!-- payments -->
<g id="node7" class="node">
<title>payments</title>
<polygon fill="#4477c9" stroke="transparent" points="269.5772,-478 269.5772,-676 352.5772,-676 352.5772,-478 269.5772,-478"/>
<polygon fill="#add8e6" stroke="transparent" points="270.0772,-658 270.0772,-676 353.0772,-676 353.0772,-658 270.0772,-658"/>
<polygon fill="none" stroke="#000000" points="270.0772,-658 270.0772,-676 353.0772,-676 353.0772,-658 270.0772,-658"/>
<text text-anchor="start" x="292.0809" y="-664.9" font-family="Times,serif" font-weight="bold" font-style="italic" font-size="9.00" fill="#000000"> payments </text>
<polygon fill="none" stroke="#000000" points="270.0772,-638 270.0772,-658 353.0772,-658 353.0772,-638 270.0772,-638"/>
<text text-anchor="start" x="275.0772" y="-644.9" font-family="Times,serif" font-size="9.00" fill="#000000">user_id: ObjectId</text>
<polygon fill="none" stroke="#000000" points="270.0772,-618 270.0772,-638 353.0772,-638 353.0772,-618 270.0772,-618"/>
<text text-anchor="start" x="275.0772" y="-624.9" font-family="Times,serif" font-size="9.00" fill="#000000">amount: Number</text>
<polygon fill="none" stroke="#000000" points="270.0772,-598 270.0772,-618 353.0772,-618 353.0772,-598 270.0772,-598"/>
<text text-anchor="start" x="275.0772" y="-604.9" font-family="Times,serif" font-size="9.00" fill="#000000">method: String</text>
<polygon fill="none" stroke="#000000" points="270.0772,-578 270.0772,-598 353.0772,-598 353.0772,-578 270.0772,-578"/>
<text text-anchor="start" x="275.0772" y="-584.9" font-family="Times,serif" font-size="9.00" fill="#000000">status: String</text>
<polygon fill="none" stroke="#000000" points="270.0772,-558 270.0772,-578 353.0772,-578 353.0772,-558 270.0772,-558"/>
<text text-anchor="start" x="274.7105" y="-564.9" font-family="Times,serif" font-size="9.00" fill="#000000">transactionId: String</text>
<polygon fill="none" stroke="#000000" points="270.0772,-538 270.0772,-558 353.0772,-558 353.0772,-538 270.0772,-538"/>
<text text-anchor="start" x="275.0772" y="-544.9" font-family="Times,serif" font-size="9.00" fill="#000000">createdAt: Date</text>
<polygon fill="none" stroke="#000000" points="270.0772,-518 270.0772,-538 353.0772,-538 353.0772,-518 270.0772,-518"/>
<text text-anchor="start" x="275.0772" y="-524.9" font-family="Times,serif" font-size="9.00" fill="#000000">_id: ObjectId</text>
<polygon fill="none" stroke="#000000" points="270.0772,-498 270.0772,-518 353.0772,-518 353.0772,-498 270.0772,-498"/>
<text text-anchor="start" x="275.0772" y="-504.9" font-family="Times,serif" font-size="9.00" fill="#000000">updatedAt: Date</text>
<polygon fill="none" stroke="#000000" points="270.0772,-478 270.0772,-498 353.0772,-498 353.0772,-478 270.0772,-478"/>
<text text-anchor="start" x="275.0772" y="-484.9" font-family="Times,serif" font-size="9.00" fill="#000000">__v: Number</text>
</g>
<!-- payments&#45;&gt;orders -->
<g id="edge6" class="edge">
<title>payments:6&#45;&gt;orders:4</title>
<path fill="none" stroke="#000000" stroke-dasharray="5,2" d="M353.0772,-528C459.2516,-528 418.6988,-1468 524.8732,-1468"/>
<text text-anchor="middle" x="441.7252" y="-1421.2" font-family="Times,serif" font-size="14.00" fill="#000000">payments&#45;orders</text>
<text text-anchor="middle" x="519.8199" y="-1455.4" font-family="Times,serif" font-size="14.00" fill="#000000">N</text>
<text text-anchor="middle" x="356.5772" y="-515.4" font-family="Times,serif" font-size="14.00" fill="#000000">1</text>
</g>
<!-- products -->
<g id="node8" class="node">
<title>products</title>
<polygon fill="#4477c9" stroke="transparent" points="0,-250 0,-448 76,-448 76,-250 0,-250"/>
<polygon fill="#add8e6" stroke="transparent" points="0,-430 0,-448 76,-448 76,-430 0,-430"/>
<polygon fill="none" stroke="#000000" points="0,-430 0,-448 76,-448 76,-430 0,-430"/>
<text text-anchor="start" x="20.2538" y="-436.9" font-family="Times,serif" font-weight="bold" font-style="italic" font-size="9.00" fill="#000000"> products </text>
<polygon fill="none" stroke="#000000" points="0,-410 0,-430 76,-430 76,-410 0,-410"/>
<text text-anchor="start" x="5" y="-416.9" font-family="Times,serif" font-size="9.00" fill="#000000">name: String</text>
<polygon fill="none" stroke="#000000" points="0,-390 0,-410 76,-410 76,-390 0,-390"/>
<text text-anchor="start" x="4.6289" y="-396.9" font-family="Times,serif" font-size="9.00" fill="#000000">description: String</text>
<polygon fill="none" stroke="#000000" points="0,-370 0,-390 76,-390 76,-370 0,-370"/>
<text text-anchor="start" x="5" y="-376.9" font-family="Times,serif" font-size="9.00" fill="#000000">price: Number</text>
<polygon fill="none" stroke="#000000" points="0,-350 0,-370 76,-370 76,-350 0,-350"/>
<text text-anchor="start" x="5" y="-356.9" font-family="Times,serif" font-size="9.00" fill="#000000">category: String</text>
<polygon fill="none" stroke="#000000" points="0,-330 0,-350 76,-350 76,-330 0,-330"/>
<text text-anchor="start" x="5" y="-336.9" font-family="Times,serif" font-size="9.00" fill="#000000">stock: Number</text>
<polygon fill="none" stroke="#000000" points="0,-310 0,-330 76,-330 76,-310 0,-310"/>
<text text-anchor="start" x="5" y="-316.9" font-family="Times,serif" font-size="9.00" fill="#000000">_id: ObjectId</text>
<polygon fill="none" stroke="#000000" points="0,-290 0,-310 76,-310 76,-290 0,-290"/>
<text text-anchor="start" x="5" y="-296.9" font-family="Times,serif" font-size="9.00" fill="#000000">createdAt: Date</text>
<polygon fill="none" stroke="#000000" points="0,-270 0,-290 76,-290 76,-270 0,-270"/>
<text text-anchor="start" x="5" y="-276.9" font-family="Times,serif" font-size="9.00" fill="#000000">updatedAt: Date</text>
<polygon fill="none" stroke="#000000" points="0,-250 0,-270 76,-270 76,-250 0,-250"/>
<text text-anchor="start" x="5" y="-256.9" font-family="Times,serif" font-size="9.00" fill="#000000">__v: Number</text>
</g>
<!-- products&#45;&gt;inventories -->
<g id="edge2" class="edge">
<title>products:5&#45;&gt;inventories:0</title>
<path fill="none" stroke="#000000" stroke-dasharray="5,2" d="M76,-320C165.6003,-320 179.4769,-378 269.0772,-378"/>
<text text-anchor="middle" x="169.5386" y="-376.2" font-family="Times,serif" font-size="14.00" fill="#000000">products&#45;inventories</text>
<text text-anchor="middle" x="264.0239" y="-365.4" font-family="Times,serif" font-size="14.00" fill="#000000">N</text>
<text text-anchor="middle" x="79.5" y="-307.4" font-family="Times,serif" font-size="14.00" fill="#000000">1</text>
</g>
<!-- reviews -->
<g id="node10" class="node">
<title>reviews</title>
<polygon fill="#4477c9" stroke="transparent" points="268.5772,-18 268.5772,-196 353.5772,-196 353.5772,-18 268.5772,-18"/>
<polygon fill="#add8e6" stroke="transparent" points="269.0772,-178 269.0772,-196 354.0772,-196 354.0772,-178 269.0772,-178"/>
<polygon fill="none" stroke="#000000" points="269.0772,-178 269.0772,-196 354.0772,-196 354.0772,-178 269.0772,-178"/>
<text text-anchor="start" x="295.3349" y="-184.9" font-family="Times,serif" font-weight="bold" font-style="italic" font-size="9.00" fill="#000000"> reviews </text>
<polygon fill="none" stroke="#000000" points="269.0772,-158 269.0772,-178 354.0772,-178 354.0772,-158 269.0772,-158"/>
<text text-anchor="start" x="273.9621" y="-164.9" font-family="Times,serif" font-size="9.00" fill="#000000">product_id: ObjectId</text>
<polygon fill="none" stroke="#000000" points="269.0772,-138 269.0772,-158 354.0772,-158 354.0772,-138 269.0772,-138"/>
<text text-anchor="start" x="274.0772" y="-144.9" font-family="Times,serif" font-size="9.00" fill="#000000">user_id: ObjectId</text>
<polygon fill="none" stroke="#000000" points="269.0772,-118 269.0772,-138 354.0772,-138 354.0772,-118 269.0772,-118"/>
<text text-anchor="start" x="274.0772" y="-124.9" font-family="Times,serif" font-size="9.00" fill="#000000">rating: Number</text>
<polygon fill="none" stroke="#000000" points="269.0772,-98 269.0772,-118 354.0772,-118 354.0772,-98 269.0772,-98"/>
<text text-anchor="start" x="274.0772" y="-104.9" font-family="Times,serif" font-size="9.00" fill="#000000">comment: String</text>
<polygon fill="none" stroke="#000000" points="269.0772,-78 269.0772,-98 354.0772,-98 354.0772,-78 269.0772,-78"/>
<text text-anchor="start" x="274.0772" y="-84.9" font-family="Times,serif" font-size="9.00" fill="#000000">_id: ObjectId</text>
<polygon fill="none" stroke="#000000" points="269.0772,-58 269.0772,-78 354.0772,-78 354.0772,-58 269.0772,-58"/>
<text text-anchor="start" x="274.0772" y="-64.9" font-family="Times,serif" font-size="9.00" fill="#000000">createdAt: Date</text>
<polygon fill="none" stroke="#000000" points="269.0772,-38 269.0772,-58 354.0772,-58 354.0772,-38 269.0772,-38"/>
<text text-anchor="start" x="274.0772" y="-44.9" font-family="Times,serif" font-size="9.00" fill="#000000">updatedAt: Date</text>
<polygon fill="none" stroke="#000000" points="269.0772,-18 269.0772,-38 354.0772,-38 354.0772,-18 269.0772,-18"/>
<text text-anchor="start" x="274.0772" y="-24.9" font-family="Times,serif" font-size="9.00" fill="#000000">__v: Number</text>
</g>
<!-- products&#45;&gt;reviews -->
<g id="edge9" class="edge">
<title>products:5&#45;&gt;reviews:0</title>
<path fill="none" stroke="#000000" stroke-dasharray="5,2" d="M76,-320C97.0567,-320 95.6593,-302.4803 112,-289.2 129.1072,-275.2967 247.0327,-168 269.0772,-168"/>
<text text-anchor="middle" x="169.5386" y="-294.2" font-family="Times,serif" font-size="14.00" fill="#000000">products&#45;reviews</text>
<text text-anchor="middle" x="264.0239" y="-155.4" font-family="Times,serif" font-size="14.00" fill="#000000">N</text>
<text text-anchor="middle" x="79.5" y="-324.2" font-family="Times,serif" font-size="14.00" fill="#000000">1</text>
</g>
<!-- users -->
<g id="node11" class="node">
<title>users</title>
<polygon fill="#4477c9" stroke="transparent" points="2.5,-913 2.5,-1111 73.5,-1111 73.5,-913 2.5,-913"/>
<polygon fill="#add8e6" stroke="transparent" points="3,-1093 3,-1111 74,-1111 74,-1093 3,-1093"/>
<polygon fill="none" stroke="#000000" points="3,-1093 3,-1111 74,-1111 74,-1093 3,-1093"/>
<text text-anchor="start" x="27.0043" y="-1099.9" font-family="Times,serif" font-weight="bold" font-style="italic" font-size="9.00" fill="#000000"> users </text>
<polygon fill="none" stroke="#000000" points="3,-1073 3,-1093 74,-1093 74,-1073 3,-1073"/>
<text text-anchor="start" x="7.8825" y="-1079.9" font-family="Times,serif" font-size="9.00" fill="#000000">username: String</text>
<polygon fill="none" stroke="#000000" points="3,-1053 3,-1073 74,-1073 74,-1053 3,-1053"/>
<text text-anchor="start" x="8" y="-1059.9" font-family="Times,serif" font-size="9.00" fill="#000000">email: String</text>
<polygon fill="none" stroke="#000000" points="3,-1033 3,-1053 74,-1053 74,-1033 3,-1033"/>
<text text-anchor="start" x="8" y="-1039.9" font-family="Times,serif" font-size="9.00" fill="#000000">password: String</text>
<polygon fill="none" stroke="#000000" points="3,-1013 3,-1033 74,-1033 74,-1013 3,-1013"/>
<text text-anchor="start" x="8" y="-1019.9" font-family="Times,serif" font-size="9.00" fill="#000000">address: String</text>
<polygon fill="none" stroke="#000000" points="3,-993 3,-1013 74,-1013 74,-993 3,-993"/>
<text text-anchor="start" x="8" y="-999.9" font-family="Times,serif" font-size="9.00" fill="#000000">phone: String</text>
<polygon fill="none" stroke="#000000" points="3,-973 3,-993 74,-993 74,-973 3,-973"/>
<text text-anchor="start" x="8" y="-979.9" font-family="Times,serif" font-size="9.00" fill="#000000">_id: ObjectId</text>
<polygon fill="none" stroke="#000000" points="3,-953 3,-973 74,-973 74,-953 3,-953"/>
<text text-anchor="start" x="8" y="-959.9" font-family="Times,serif" font-size="9.00" fill="#000000">createdAt: Date</text>
<polygon fill="none" stroke="#000000" points="3,-933 3,-953 74,-953 74,-933 3,-933"/>
<text text-anchor="start" x="8" y="-939.9" font-family="Times,serif" font-size="9.00" fill="#000000">updatedAt: Date</text>
<polygon fill="none" stroke="#000000" points="3,-913 3,-933 74,-933 74,-913 3,-913"/>
<text text-anchor="start" x="8" y="-919.9" font-family="Times,serif" font-size="9.00" fill="#000000">__v: Number</text>
</g>
<!-- users&#45;&gt;carts -->
<g id="edge1" class="edge">
<title>users:5&#45;&gt;carts:0</title>
<path fill="none" stroke="#000000" stroke-dasharray="5,2" d="M74,-983C94.9259,-983 94.1247,-966.0797 112,-955.2 177.7673,-915.171 190.0859,-878 267.0772,-878"/>
<text text-anchor="middle" x="169.5386" y="-959.2" font-family="Times,serif" font-size="14.00" fill="#000000">users&#45;carts</text>
<text text-anchor="middle" x="262.0239" y="-882.2" font-family="Times,serif" font-size="14.00" fill="#000000">N</text>
<text text-anchor="middle" x="77.5" y="-970.4" font-family="Times,serif" font-size="14.00" fill="#000000">1</text>
</g>
<!-- users&#45;&gt;notifications -->
<g id="edge3" class="edge">
<title>users:5&#45;&gt;notifications:0</title>
<path fill="none" stroke="#000000" stroke-dasharray="5,2" d="M74,-983C133.7691,-983 84.5035,-1058.9313 112,-1112 165.7202,-1215.6809 158.3057,-1318 275.0772,-1318"/>
<text text-anchor="middle" x="169.5386" y="-1312.2" font-family="Times,serif" font-size="14.00" fill="#000000">users&#45;notifications</text>
<text text-anchor="middle" x="270.0239" y="-1305.4" font-family="Times,serif" font-size="14.00" fill="#000000">N</text>
<text text-anchor="middle" x="77.5" y="-987.2" font-family="Times,serif" font-size="14.00" fill="#000000">1</text>
</g>
<!-- users&#45;&gt;orders -->
<g id="edge4" class="edge">
<title>users:5&#45;&gt;orders:0</title>
<path fill="none" stroke="#000000" stroke-dasharray="5,2" d="M74,-983C114.2222,-983 100.3663,-1304.4969 112,-1343 153.9205,-1481.7413 139.1049,-1556.9178 263.0772,-1632 367.599,-1695.3023 402.6767,-1548 524.8732,-1548"/>
<text text-anchor="middle" x="311.0772" y="-1651.2" font-family="Times,serif" font-size="14.00" fill="#000000">users&#45;orders</text>
<text text-anchor="middle" x="519.8199" y="-1535.4" font-family="Times,serif" font-size="14.00" fill="#000000">N</text>
<text text-anchor="middle" x="70.5" y="-987.2" font-family="Times,serif" font-size="14.00" fill="#000000">1</text>
</g>
<!-- users&#45;&gt;payments -->
<g id="edge7" class="edge">
<title>users:5&#45;&gt;payments:0</title>
<path fill="none" stroke="#000000" stroke-dasharray="5,2" d="M74,-983C136.2461,-983 83.7227,-903.6524 112,-848.2 163.5026,-747.2024 156.706,-648 270.0772,-648"/>
<text text-anchor="middle" x="169.5386" y="-852.2" font-family="Times,serif" font-size="14.00" fill="#000000">users&#45;payments</text>
<text text-anchor="middle" x="265.0239" y="-635.4" font-family="Times,serif" font-size="14.00" fill="#000000">N</text>
<text text-anchor="middle" x="70.5" y="-970.4" font-family="Times,serif" font-size="14.00" fill="#000000">1</text>
</g>
<!-- users&#45;&gt;reviews -->
<g id="edge10" class="edge">
<title>users:5&#45;&gt;reviews:1</title>
<path fill="none" stroke="#000000" stroke-dasharray="5,2" d="M74,-983C165.5197,-983 48.3085,-225.921 112,-160.2 160.7308,-109.9164 199.0549,-148 269.0772,-148"/>
<text text-anchor="middle" x="169.5386" y="-165.2" font-family="Times,serif" font-size="14.00" fill="#000000">users&#45;reviews</text>
<text text-anchor="middle" x="264.0239" y="-135.4" font-family="Times,serif" font-size="14.00" fill="#000000">N</text>
<text text-anchor="middle" x="77.5" y="-987.2" font-family="Times,serif" font-size="14.00" fill="#000000">1</text>
</g>
<!-- wishlists -->
<g id="node12" class="node">
<title>wishlists</title>
<polygon fill="#4477c9" stroke="transparent" points="275.0772,-978 275.0772,-1116 347.0772,-1116 347.0772,-978 275.0772,-978"/>
<polygon fill="#add8e6" stroke="transparent" points="275.0772,-1098 275.0772,-1116 347.0772,-1116 347.0772,-1098 275.0772,-1098"/>
<polygon fill="none" stroke="#000000" points="275.0772,-1098 275.0772,-1116 347.0772,-1116 347.0772,-1098 275.0772,-1098"/>
<text text-anchor="start" x="293.0763" y="-1104.9" font-family="Times,serif" font-weight="bold" font-style="italic" font-size="9.00" fill="#000000"> wishlists </text>
<polygon fill="none" stroke="#000000" points="275.0772,-1078 275.0772,-1098 347.0772,-1098 347.0772,-1078 275.0772,-1078"/>
<text text-anchor="start" x="279.7126" y="-1084.9" font-family="Times,serif" font-size="9.00" fill="#000000">user_id: ObjectId</text>
<polygon fill="none" stroke="#000000" points="275.0772,-1058 275.0772,-1078 347.0772,-1078 347.0772,-1058 275.0772,-1058"/>
<text text-anchor="start" x="280.0772" y="-1064.9" font-family="Times,serif" font-size="9.00" fill="#000000">products: Array</text>
<polygon fill="none" stroke="#000000" points="275.0772,-1038 275.0772,-1058 347.0772,-1058 347.0772,-1038 275.0772,-1038"/>
<text text-anchor="start" x="280.0772" y="-1044.9" font-family="Times,serif" font-size="9.00" fill="#000000">_id: ObjectId</text>
<polygon fill="none" stroke="#000000" points="275.0772,-1018 275.0772,-1038 347.0772,-1038 347.0772,-1018 275.0772,-1018"/>
<text text-anchor="start" x="280.0772" y="-1024.9" font-family="Times,serif" font-size="9.00" fill="#000000">createdAt: Date</text>
<polygon fill="none" stroke="#000000" points="275.0772,-998 275.0772,-1018 347.0772,-1018 347.0772,-998 275.0772,-998"/>
<text text-anchor="start" x="280.0772" y="-1004.9" font-family="Times,serif" font-size="9.00" fill="#000000">updatedAt: Date</text>
<polygon fill="none" stroke="#000000" points="275.0772,-978 275.0772,-998 347.0772,-998 347.0772,-978 275.0772,-978"/>
<text text-anchor="start" x="280.0772" y="-984.9" font-family="Times,serif" font-size="9.00" fill="#000000">__v: Number</text>
</g>
<!-- users&#45;&gt;wishlists -->
<g id="edge11" class="edge">
<title>users:5&#45;&gt;wishlists:0</title>
<path fill="none" stroke="#000000" stroke-dasharray="5,2" d="M74,-983C174.8184,-983 174.2588,-1088 275.0772,-1088"/>
<text text-anchor="middle" x="169.5386" y="-1081.2" font-family="Times,serif" font-size="14.00" fill="#000000">users&#45;wishlists</text>
<text text-anchor="middle" x="270.0239" y="-1075.4" font-family="Times,serif" font-size="14.00" fill="#000000">N</text>
<text text-anchor="middle" x="77.5" y="-970.4" font-family="Times,serif" font-size="14.00" fill="#000000">1</text>
</g>
</g>
</svg>
