<?xml version="1.0" encoding="UTF-8"?>
<svg xmlns="http://www.w3.org/2000/svg" version="1.1" viewBox="0 0 800 800">
  <defs>
    <style>
      .cls-1 {
        fill: #c98e18;
      }
    </style>
  </defs>
  <!-- Generator: Adobe Illustrator 28.6.0, SVG Export Plug-In . SVG Version: 1.2.0 Build 709)  -->
  <g>
    <g id="Layer_1">
      <g id="Capa_1">
        <g id="SVGRepo_iconCarrier">
          <g>
            <g>
              <path class="cls-1" d="M654,251.1c0-28.2-27.5-53.9-77.5-72.5-47.3-17.6-110-27.2-176.5-27.2s-129.2,9.7-176.5,27.2c-50,18.5-77.5,44.3-77.5,72.5s27.5,53.9,77.5,72.5c47.3,17.6,110,27.2,176.5,27.2s129.2-9.7,176.5-27.2c50-18.5,77.5-44.3,77.5-72.5ZM570.6,307.6c-45.4,16.9-106,26.2-170.6,26.2s-125.1-9.3-170.6-26.2c-42.1-15.6-66.3-36.2-66.3-56.4s24.2-40.8,66.3-56.4c45.4-16.9,106-26.2,170.6-26.2s125.1,9.3,170.6,26.2c42.1,15.6,66.3,36.2,66.3,56.4s-24.2,40.8-66.3,56.4Z"/>
              <path class="cls-1" d="M400,351.7c-66.6,0-129.4-9.7-176.8-27.3-50.3-18.7-78-44.7-78-73.3s27.7-54.6,78-73.3c47.4-17.6,110.2-27.3,176.8-27.3s129.4,9.7,176.8,27.3c50.3,18.7,78,44.7,78,73.3s-27.7,54.6-78,73.3c-47.4,17.6-110.2,27.3-176.8,27.3ZM400,152.3c-66.4,0-129,9.7-176.2,27.2-49.6,18.4-76.9,43.9-76.9,71.7s27.3,53.2,76.9,71.7c47.2,17.5,109.8,27.2,176.2,27.2s129-9.6,176.2-27.2c49.6-18.4,76.9-43.9,76.9-71.7s-27.3-53.2-76.9-71.7c-47.2-17.5-109.8-27.2-176.2-27.2ZM400,334.6c-64.7,0-125.3-9.3-170.9-26.2-42.5-15.8-66.9-36.6-66.9-57.2s24.4-41.4,66.9-57.2c45.5-16.9,106.2-26.2,170.9-26.2s125.3,9.3,170.9,26.2c42.5,15.8,66.9,36.6,66.9,57.2s-24.4,41.4-66.9,57.2c-45.5,16.9-106.2,26.2-170.9,26.2h0ZM400,169.4c-64.5,0-124.9,9.3-170.3,26.1-41.8,15.5-65.7,35.8-65.7,55.6s24,40.1,65.7,55.6c45.3,16.8,105.8,26.1,170.3,26.1s124.9-9.3,170.3-26.1l.3.8-.3-.8c41.8-15.5,65.8-35.8,65.8-55.6s-24-40.1-65.8-55.6c-45.3-16.8-105.8-26.1-170.3-26.1Z"/>
            </g>
            <g>
              <path class="cls-1" d="M692.9,183.2c-69-45.9-170.3-70.2-292.9-70.2s-223.8,24.3-292.9,70.2C37,229.9,0,298.6,0,381.9s37.8,161.4,106.5,216.3c72.5,58,174,88.7,293.5,88.7s220.9-30.7,293.5-88.7c68.7-55,106.5-131.8,106.5-216.3s-37-152.1-107.1-198.7h0ZM21,337.8c8.7,8.9,16.4,19.5,22.6,31,23.9,44.3,21,93.8-5.4,114.8-13.9-31.6-21.1-65.9-21.1-101.6s1.3-30,3.9-44.2h0ZM682.8,584.9c-69.5,55.6-167.3,85-282.8,85s-213.3-29.4-282.8-85c-30.5-24.4-54.6-53.4-71.4-85.6,17-11.8,27.8-31.7,30.6-56.7,2.9-26.2-3.3-55.3-17.6-81.9-8.7-16.3-20.2-30.8-33.2-42.3,4.2-14.8,9.8-28.9,17.1-42.2,16.7-30.7,41.6-57.2,74-78.8,66.2-44.1,164.2-67.3,283.4-67.3s217.2,23.3,283.4,67.3c32.4,21.6,57.3,48.1,74,78.8,7.2,13.3,12.9,27.4,17.1,42.2-13,11.5-24.4,26-33.2,42.3-14.3,26.6-20.6,55.7-17.6,81.9,2.8,25,13.6,44.8,30.6,56.7-16.9,32.2-40.9,61.2-71.4,85.6h-.2ZM761.8,483.6c-26.4-21-29.3-70.4-5.4-114.8,6.2-11.5,13.9-22.1,22.6-31,2.6,14.1,3.9,28.9,3.9,44.2,0,35.7-7.3,70-21.1,101.6Z"/>
              <path class="cls-1" d="M400,687.8c-119.6,0-221.3-30.7-294-88.9C37.1,543.8-.9,466.7-.9,381.9s37.2-152.6,107.5-199.4c69.2-46,170.6-70.3,293.3-70.3s224.2,24.3,293.3,70.3c70.3,46.8,107.5,115.8,107.5,199.4s-37.9,161.9-106.8,217c-72.7,58.2-174.4,88.9-294,88.9h.1ZM400,113.9c-122.4,0-223.5,24.2-292.4,70.1C37.8,230.4.9,298.9.9,381.9s37.7,160.9,106.2,215.6c72.4,57.9,173.7,88.5,292.9,88.5s220.6-30.6,292.9-88.5c68.5-54.8,106.2-131.4,106.2-215.6s-36.9-151.5-106.8-198c-68.9-45.8-170-70.1-292.4-70.1h0ZM400,670.7c-115.7,0-213.7-29.4-283.3-85.1-30.5-24.4-54.6-53.3-71.7-85.9l-.3-.7.6-.4c16.7-11.7,27.5-31.6,30.2-56.1,2.9-26.1-3.3-55-17.5-81.4-8.6-16.1-20-30.6-33-42l-.4-.4v-.5c4.3-14.9,10.1-29.1,17.3-42.4,16.8-30.8,41.8-57.4,74.3-79.1,66.4-44.1,164.5-67.5,283.9-67.5s217.5,23.3,283.9,67.5c32.5,21.7,57.5,48.3,74.3,79.1,7.2,13.2,12.9,27.5,17.1,42.4v.5c0,0-.3.4-.3.4-13,11.4-24.4,26-33,42-14.2,26.4-20.4,55.3-17.5,81.4,2.7,24.5,13.5,44.4,30.2,56.1l.6.4-.3.7c-17.1,32.6-41.2,61.5-71.7,85.9-69.6,55.7-167.6,85.1-283.3,85.1h0ZM46.9,499.5c17,32.1,40.8,60.6,70.9,84.7,69.3,55.5,166.9,84.8,282.3,84.8s212.9-29.3,282.3-84.8l.5.7-.5-.7c30.1-24,53.9-52.5,70.9-84.7-16.8-12-27.5-32.2-30.3-56.8-3-26.4,3.3-55.7,17.7-82.4,8.6-16.1,20-30.6,33-42.1-4.1-14.6-9.8-28.5-16.8-41.5-16.6-30.6-41.4-57-73.8-78.5-66.1-44-163.9-67.2-282.9-67.2s-216.8,23.2-282.9,67.2c-32.3,21.5-57.1,47.9-73.8,78.5-7,12.9-12.7,26.9-16.8,41.5,12.9,11.5,24.3,26.1,33,42.1,14.4,26.7,20.7,56,17.7,82.4-2.8,24.7-13.5,44.8-30.3,56.8h-.2ZM762.1,484.9l-.9-.7c-27.1-21.6-29.5-71.4-5.6-115.8,6.2-11.6,13.9-22.1,22.7-31.2l1.2-1.2.3,1.6c2.6,14.2,4,29.1,4,44.3,0,35.6-7.1,69.9-21.2,102l-.4,1h0ZM778.4,339.6c-8.2,8.7-15.4,18.7-21.3,29.6-11.4,21.2-17.1,44.5-16,65.7,1,20.4,8.2,37.2,20.4,47.3,13.7-31.6,20.6-65.3,20.6-100.3s-1.2-28.7-3.6-42.4h-.1ZM37.9,484.9l-.4-1c-14.1-32.1-21.2-66.4-21.2-102s1.3-30.1,4-44.3l.3-1.6,1.2,1.2c8.8,9.1,16.5,19.6,22.7,31.2,23.9,44.5,21.5,94.3-5.6,115.8l-.9.7h0ZM21.6,339.6c-2.4,13.6-3.6,27.9-3.6,42.4,0,35,6.9,68.7,20.6,100.3,12.1-10.1,19.3-26.9,20.4-47.3,1.1-21.2-4.6-44.5-16-65.7-5.9-11-13.1-20.9-21.3-29.6h-.1Z"/>
            </g>
            <g>
              <path class="cls-1" d="M496.5,442.3c-25.9-18.2-60.2-28.2-96.5-28.2s-70.6,10-96.5,28.2c-26.8,18.9-41.6,44.2-41.6,71.4s14.8,52.6,41.6,71.4c25.9,18.2,60.2,28.2,96.5,28.2s70.6-10,96.5-28.2c26.8-18.9,41.6-44.2,41.6-71.4s-14.8-52.6-41.6-71.4h0ZM400,596.3c-66.7,0-121-37-121-82.5s54.3-82.5,121-82.5,121,37,121,82.5-54.3,82.5-121,82.5Z"/>
              <path class="cls-1" d="M400,614.3c-36.5,0-71-10.1-97-28.4-27.1-19-42-44.6-42-72.1s14.9-53.1,42-72.1c26-18.3,60.5-28.4,97-28.4s71,10.1,97,28.4c27.1,19,42,44.6,42,72.1s-14.9,53.1-42,72.1c-26,18.3-60.5,28.4-97,28.4ZM400,415c-36.2,0-70.3,10-96.1,28.1-26.6,18.7-41.2,43.8-41.2,70.7s14.6,52,41.2,70.7c25.8,18.1,59.9,28.1,96.1,28.1s70.3-10,96.1-28.1c26.6-18.7,41.2-43.8,41.2-70.7s-14.6-52-41.2-70.7c-25.8-18.1-59.9-28.1-96.1-28.1h0ZM400,597.1c-67.2,0-121.9-37.4-121.9-83.4s54.7-83.4,121.9-83.4,121.9,37.4,121.9,83.4-54.7,83.4-121.9,83.4h0ZM400,432.1c-66.3,0-120.2,36.6-120.2,81.7s53.9,81.7,120.2,81.7,120.2-36.6,120.2-81.7-53.9-81.7-120.2-81.7h0Z"/>
            </g>
            <g>
              <path class="cls-1" d="M400,461.2c-44.3,0-80.3,26.5-80.3,59s36,59,80.3,59,80.3-26.5,80.3-59-36-59-80.3-59ZM400,562c-34.2,0-63.2-19.2-63.2-41.9s28.9-41.9,63.2-41.9,63.2,19.2,63.2,41.9-28.9,41.9-63.2,41.9Z"/>
              <path class="cls-1" d="M400,580c-44.7,0-81.1-26.8-81.1-59.8s36.4-59.8,81.1-59.8,81.1,26.8,81.1,59.8-36.4,59.8-81.1,59.8ZM400,462c-43.8,0-79.4,26.1-79.4,58.1s35.6,58.1,79.4,58.1,79.4-26.1,79.4-58.1-35.6-58.1-79.4-58.1h0ZM400,562.9c-34.7,0-64-19.6-64-42.7s29.3-42.7,64-42.7,64,19.6,64,42.7-29.3,42.7-64,42.7ZM400,479.2c-33.8,0-62.3,18.8-62.3,41s28.5,41,62.3,41,62.3-18.8,62.3-41-28.5-41-62.3-41Z"/>
            </g>
            <g>
              <path class="cls-1" d="M172.1,438.9c-21,0-38.1,21.1-38.1,47s17.1,47,38.1,47,38.1-21.1,38.1-47-17.1-47-38.1-47h0ZM172.1,515.9c-11.4,0-21-13.7-21-29.9s9.6-29.9,21-29.9,21,13.7,21,29.9-9.6,29.9-21,29.9Z"/>
              <path class="cls-1" d="M172.1,533.9c-21.5,0-38.9-21.5-38.9-47.9s17.5-47.9,38.9-47.9,38.9,21.5,38.9,47.9-17.5,47.9-38.9,47.9ZM172.1,439.8c-20.5,0-37.2,20.7-37.2,46.2s16.7,46.2,37.2,46.2,37.2-20.7,37.2-46.2-16.7-46.2-37.2-46.2ZM172.1,516.8c-11.8,0-21.8-14.1-21.8-30.8s10-30.8,21.8-30.8,21.8,14.1,21.8,30.8-10,30.8-21.8,30.8ZM172.1,456.9c-10.9,0-20.1,13.3-20.1,29.1s9.2,29.1,20.1,29.1,20.1-13.3,20.1-29.1-9.2-29.1-20.1-29.1h0Z"/>
            </g>
            <g>
              <path class="cls-1" d="M627.9,438.9c-21,0-38.1,21.1-38.1,47s17.1,47,38.1,47,38.1-21.1,38.1-47-17.1-47-38.1-47h0ZM627.9,515.9c-11.4,0-21-13.7-21-29.9s9.6-29.9,21-29.9,21,13.7,21,29.9-9.6,29.9-21,29.9Z"/>
              <path class="cls-1" d="M627.9,533.9c-21.5,0-38.9-21.5-38.9-47.9s17.5-47.9,38.9-47.9,38.9,21.5,38.9,47.9-17.5,47.9-38.9,47.9ZM627.9,439.8c-20.5,0-37.2,20.7-37.2,46.2s16.7,46.2,37.2,46.2,37.2-20.7,37.2-46.2-16.7-46.2-37.2-46.2ZM627.9,516.8c-11.8,0-21.8-14.1-21.8-30.8s10-30.8,21.8-30.8,21.8,14.1,21.8,30.8-10,30.8-21.8,30.8ZM627.9,456.9c-10.9,0-20.1,13.3-20.1,29.1s9.2,29.1,20.1,29.1,20.1-13.3,20.1-29.1-9.2-29.1-20.1-29.1h0Z"/>
            </g>
          </g>
        </g>
      </g>
    </g>
  </g>
</svg>