<?xml version="1.0" encoding="UTF-8"?>
<svg xmlns="http://www.w3.org/2000/svg" version="1.1" viewBox="0 0 800 800">
  <defs>
    <style>
      .cls-1 {
        fill: #c98e18;
      }
    </style>
  </defs>
  <!-- Generator: Adobe Illustrator 28.6.0, SVG Export Plug-In . SVG Version: 1.2.0 Build 709)  -->
  <g>
    <g id="Capa_1">
      <g id="SVGRepo_iconCarrier">
        <g>
          <g>
            <path class="cls-1" d="M187.6,64.7c2,0,4.1-.4,6.1-1.3,15.9-7.2,33.9-13.2,53.5-18.1,7.9-2,12.8-10,10.8-18-2-8-10-12.8-18-10.8-21.3,5.3-41,12-58.5,19.9-7.5,3.4-10.8,12.1-7.4,19.6,2.5,5.5,7.9,8.8,13.5,8.8Z"/>
            <path class="cls-1" d="M187.6,72.1c-8.7,0-16.7-5.1-20.3-13.1-2.4-5.4-2.6-11.5-.5-17,2.1-5.5,6.2-9.9,11.6-12.4,17.9-8.1,38-14.9,59.8-20.3,11.9-3,24,4.3,26.9,16.2,3,11.9-4.3,24-16.2,26.9-19.2,4.8-36.8,10.7-52.2,17.7-2.9,1.3-6,2-9.1,2ZM243.5,23.4c-.6,0-1.2,0-1.8.2-20.9,5.2-40.2,11.7-57.2,19.4-1.8.8-3.2,2.3-3.9,4.1-.7,1.8-.6,3.9.2,5.7,1.2,2.7,3.9,4.4,6.8,4.4s2.1-.2,3-.7c16.3-7.3,34.7-13.6,54.7-18.6,4-1,6.4-5,5.4-9-.8-3.4-3.9-5.6-7.2-5.6Z"/>
          </g>
          <g>
            <path class="cls-1" d="M301.8,35c.6,0,1.2,0,1.9-.1,18-2.3,37.5-3.8,57.8-4.7,8.2-.3,14.5-7.2,14.2-15.4-.3-8.2-7-14.5-15.4-14.2-21.1.9-41.4,2.5-60.2,4.9-8.1,1-13.9,8.4-12.9,16.5.9,7.5,7.3,13,14.7,13Z"/>
            <path class="cls-1" d="M301.8,42.5c-11.2,0-20.6-8.4-22-19.5-.7-5.9.9-11.7,4.5-16.4,3.6-4.7,8.9-7.7,14.8-8.4,19-2.4,39.5-4,60.8-4.9,12.4-.4,22.6,8.9,23.1,21.3.5,12.2-9,22.6-21.3,23.1-20,.8-39.2,2.4-57.1,4.6-.9.1-1.8.2-2.8.2ZM360.8,8c0,0-.2,0-.3,0-20.9.9-40.9,2.5-59.6,4.8-2,.2-3.7,1.2-4.9,2.8-1.2,1.6-1.7,3.5-1.5,5.5.5,3.7,3.6,6.5,7.3,6.5s.6,0,.8,0h.1c18.4-2.3,38-3.9,58.4-4.8,2,0,3.8-.9,5.1-2.4,1.3-1.5,2-3.3,1.9-5.3-.2-4.1-3.4-7.1-7.5-7.1Z"/>
          </g>
          <g>
            <path class="cls-1" d="M534.9,41.1c19.9,4,38.3,9.1,54.8,15.2,1.7.6,3.4.9,5.2.9,6,0,11.7-3.7,13.9-9.7,2.8-7.7-1.1-16.2-8.7-19.1-17.9-6.6-37.8-12.2-59.2-16.5-8.1-1.6-15.8,3.6-17.5,11.6-1.6,8,3.6,15.8,11.6,17.5Z"/>
            <path class="cls-1" d="M594.8,64.7c-2.7,0-5.3-.5-7.8-1.4-16.2-6-34.2-11-53.6-14.9h0c-5.8-1.2-10.8-4.5-14.1-9.5-3.3-4.9-4.4-10.9-3.3-16.7,2.4-11.9,14.1-19.8,26.1-17.4,21.8,4.4,42.1,10.1,60.4,16.8,11.5,4.3,17.4,17.1,13.1,28.6-3.2,8.7-11.6,14.5-20.8,14.5ZM536.3,33.8c20.2,4.1,39,9.3,55.9,15.5.8.3,1.7.5,2.6.5,3.1,0,5.9-1.9,7-4.8,1.4-3.8-.5-8.1-4.4-9.5-17.5-6.5-37.1-12-58.1-16.2-4.1-.8-7.9,1.7-8.7,5.8-.4,2,0,3.9,1.1,5.6,1.1,1.6,2.8,2.8,4.7,3.2h0Z"/>
          </g>
          <g>
            <path class="cls-1" d="M419.8,29.6c20.4.4,39.9,1.5,58.1,3.2.5,0,.9,0,1.4,0,7.6,0,14-5.7,14.7-13.4.8-8.2-5.2-15.4-13.4-16.2-18.9-1.8-39.2-2.9-60.3-3.3-8.6-.2-15,6.3-15.1,14.5-.2,8.2,6.3,15,14.5,15.1Z"/>
            <path class="cls-1" d="M479.2,40.3c-.8,0-1.4,0-2.1,0-18-1.7-37.4-2.8-57.5-3.2-12.3-.2-22-10.4-21.8-22.7.1-6.1,2.6-11.7,6.9-15.8,4.2-4,9.9-6.2,15.9-6,21.3.4,41.7,1.6,60.7,3.3,12.2,1.2,21.2,12,20,24.2-1.1,11.5-10.6,20.1-22.1,20.1ZM420,7.4c-2.5,0-4.1,1-5,1.9-1.4,1.3-2.2,3.2-2.3,5.3,0,4.1,3.2,7.5,7.3,7.6h0c20.5.4,40.2,1.5,58.6,3.2,4.2.4,7.7-2.6,8.1-6.7.4-4.1-2.6-7.7-6.7-8.1-18.6-1.7-38.7-2.8-59.7-3.3,0,0-.2,0-.3,0Z"/>
          </g>
          <g>
            <path class="cls-1" d="M703,166.3c5.1,16.4,8.2,34.7,9.3,54.6.4,7.9,6.9,14.1,14.8,14.1s.5,0,.8,0c8.2-.4,14.5-7.4,14-15.6-1.1-22.3-4.7-43.2-10.6-61.9-2.4-7.8-10.7-12.1-18.6-9.7-7.8,2.4-12.2,10.8-9.7,18.6Z"/>
            <path class="cls-1" d="M727,242.3c-11.8,0-21.6-9.3-22.2-21.1-1-19.2-4-37-8.9-52.7h0c-1.8-5.7-1.2-11.7,1.5-16.9,2.8-5.3,7.4-9.1,13.1-10.9,11.7-3.6,24.2,2.9,27.9,14.6,6.1,19.3,9.7,40.8,10.9,63.7.3,5.9-1.7,11.6-5.7,16-3.9,4.4-9.3,6.9-15.2,7.3-.6,0-1,0-1.3,0ZM710.1,164.1c5.3,16.9,8.5,35.9,9.6,56.4.2,3.9,3.4,7,7.4,7h.4c2-.1,3.8-1,5.1-2.5,1.3-1.5,2-3.4,1.9-5.3-1.1-21.7-4.6-41.9-10.2-60.1-1.2-3.9-5.4-6.1-9.3-4.8-1.9.6-3.4,1.9-4.3,3.6-.9,1.8-1.1,3.8-.5,5.6h0Z"/>
          </g>
          <g>
            <path class="cls-1" d="M678.6,118.2c2.9,3.9,7.4,5.9,11.9,5.9s6.2-1,8.9-3c6.5-4.9,7.9-14.2,2.9-20.7-12.5-16.6-28.1-31.3-46.5-43.7-6.8-4.6-16-2.8-20.6,4-4.6,6.8-2.8,16,4,20.6,15.6,10.6,28.9,23,39.4,36.9Z"/>
            <path class="cls-1" d="M690.5,131.6c-6.9,0-13.6-3.3-17.8-8.9h0c-10-13.3-22.6-25.2-37.6-35.3-10.2-6.9-12.8-20.7-6-30.9,6.9-10.1,20.7-12.8,30.8-6,19.1,12.9,35.3,28.1,48.3,45.4,7.4,9.8,5.4,23.7-4.4,31.1-3.9,2.9-8.5,4.5-13.3,4.5ZM684.5,113.8c1.4,1.9,3.6,3,5.9,3s2.8-.3,4.4-1.5c3.3-2.5,3.9-7.1,1.5-10.4-12-15.9-27-30.1-44.7-42-3.4-2.3-8-1.4-10.3,2-2.3,3.4-1.4,8,2,10.3,16.3,11,30.2,24,41.1,38.6h0Z"/>
          </g>
          <g>
            <path class="cls-1" d="M121.9,407c-3.3-7.5-12-11-19.5-7.7-7.5,3.2-11,12-7.7,19.5,7.8,18,17.3,36.3,28.2,54.4,2.8,4.6,7.7,7.1,12.7,7.1s5.3-.7,7.7-2.1c7-4.3,9.2-13.4,5-20.4-10.3-16.9-19.1-33.9-26.4-50.7Z"/>
            <path class="cls-1" d="M135.6,487.7c-7.8,0-15-4-19-10.7-11.1-18.4-20.8-36.9-28.7-55.3-4.9-11.3.3-24.4,11.6-29.2,11.2-4.9,24.3.3,29.2,11.6h0c7.1,16.5,15.8,33.3,25.9,49.8,6.4,10.5,3,24.2-7.5,30.5-3.5,2.1-7.5,3.2-11.5,3.2ZM108.3,405.5c-1,0-2,.2-2.9.6-3.8,1.6-5.5,6-3.9,9.8,7.7,17.7,17,35.7,27.8,53.5,1.4,2.2,3.7,3.6,6.3,3.6s2.7-.4,3.8-1.1c3.5-2.1,4.6-6.7,2.5-10.2-10.4-17.2-19.5-34.5-26.8-51.6-1.2-2.8-4-4.5-6.8-4.5Z"/>
          </g>
          <g>
            <path class="cls-1" d="M726.6,264.5c-8.3-.9-15.5,5-16.3,13.1-1.9,17.6-5.1,36.7-9.4,57-1.7,8,3.4,15.9,11.4,17.6,1,.2,2.1.3,3.1.3,6.8,0,13-4.8,14.5-11.7,4.5-21.2,7.8-41.4,9.8-60,.9-8.2-5-15.5-13.1-16.3Z"/>
            <path class="cls-1" d="M715.4,360c-1.6,0-3.1-.2-4.7-.5-12-2.5-19.6-14.4-17.1-26.4,4.3-20.1,7.4-39,9.2-56.3.7-6,3.6-11.3,8.2-15,4.6-3.7,10.4-5.3,16.3-4.7h0c5.9.6,11.2,3.6,14.9,8.2,3.7,4.6,5.4,10.4,4.7,16.3-2,18.7-5.4,39.1-10,60.7-2.2,10.2-11.3,17.6-21.7,17.6ZM724.9,271.9c-1.7,0-3.3.5-4.5,1.6-1.5,1.2-2.5,3-2.7,5-1.9,17.7-5.1,37.2-9.5,57.7-.8,4,1.7,7.9,5.7,8.8.5.1,1,.2,1.6.2,3.5,0,6.5-2.5,7.2-5.9,4.5-21.1,7.7-41,9.7-59.2.2-2-.3-3.9-1.6-5.4-1.2-1.5-3-2.5-5-2.7h0c-.3,0-.6,0-.9,0Z"/>
          </g>
          <g>
            <path class="cls-1" d="M73.1,254.5c8.2,0,14.8-6.7,14.7-14.9v-3.3c0-18.9,1.7-36.5,5.1-52.4,1.7-8-3.4-15.9-11.4-17.6-8-1.7-15.9,3.4-17.6,11.4-3.8,17.9-5.7,37.7-5.7,58.6v3.5c0,8.2,6.7,14.7,14.8,14.7,0,0,0,0,.1,0Z"/>
            <path class="cls-1" d="M73.1,261.9h-.1c-12.2,0-22.2-9.9-22.2-22.1v-3.5c0-21.4,1.9-41.7,5.9-60.2,2.5-12,14.3-19.6,26.3-17.1,12,2.6,19.7,14.4,17.2,26.4-3.3,15.5-4.9,32.6-4.9,50.9v3.2c0,5.9-2.2,11.5-6.4,15.7-4.2,4.2-9.7,6.6-15.7,6.6h0ZM78.4,173.4c-3.4,0-6.5,2.4-7.3,5.9-3.7,17.5-5.6,36.7-5.5,57.1v3.4c0,4.1,3.4,7.4,7.4,7.4h0c2,0,3.8-.8,5.2-2.2,1.4-1.4,2.2-3.3,2.1-5.3v-3.3c0-19.3,1.7-37.5,5.2-54,.8-4-1.7-7.9-5.7-8.8-.5-.1-1-.2-1.5-.2Z"/>
          </g>
          <g>
            <path class="cls-1" d="M127.8,69.3c-16.8,14-30.8,30.4-41.4,48.8-4.1,7.1-1.7,16.2,5.3,20.3,2.3,1.4,4.9,2,7.4,2,5.1,0,10.1-2.6,12.8-7.4,9-15.4,20.7-29.2,34.8-41,6.3-5.2,7.1-14.6,1.9-20.9-5.2-6.3-14.6-7.1-20.9-1.9Z"/>
            <path class="cls-1" d="M99.1,147.8c-3.9,0-7.8-1-11.2-3-5.1-3-8.8-7.8-10.3-13.5-1.5-5.7-.7-11.7,2.3-16.9,11.1-19.1,25.6-36.2,43.1-50.8,9.4-7.8,23.4-6.6,31.3,2.8,7.9,9.4,6.6,23.5-2.8,31.3-13.5,11.2-24.6,24.4-33.2,39-4,6.8-11.3,11-19.2,11ZM137.3,73.3c-1.7,0-3.4.6-4.7,1.7h0c-16.2,13.5-29.5,29.2-39.8,46.9-1,1.7-1.3,3.7-.8,5.6.5,1.9,1.7,3.5,3.4,4.5,1.1.7,2.4,1,3.7,1,2.6,0,5.1-1.4,6.4-3.7,9.4-16.1,21.7-30.6,36.5-42.9,3.1-2.6,3.6-7.3.9-10.4-1.5-1.7-3.6-2.6-5.7-2.6Z"/>
          </g>
          <g>
            <path class="cls-1" d="M704.6,380.9c-7.7-2.8-16.2,1.1-19.1,8.7-6.4,17.1-14.4,34.5-23.9,51.8-4,7.2-1.3,16.2,5.8,20.1,2.3,1.2,4.7,1.8,7.1,1.8,5.2,0,10.3-2.8,13-7.7,10.2-18.5,18.9-37.3,25.7-55.8,2.9-7.6-1.1-16.2-8.7-19Z"/>
            <path class="cls-1" d="M674.6,470.8c-3.7,0-7.4-1-10.7-2.8-5.2-2.9-9-7.6-10.6-13.3-1.7-5.7-1-11.7,1.9-16.9,9.3-17,17.2-34,23.4-50.8,4.2-11.5,17.1-17.3,28.6-13.1h0c5.6,2.1,10,6.2,12.5,11.6,2.5,5.4,2.7,11.4.6,17-7,18.8-15.8,37.9-26.2,56.7-3.9,7.1-11.4,11.5-19.5,11.5ZM699.4,387.4c-3,0-5.9,1.8-7,4.8-6.5,17.4-14.7,35.2-24.4,52.8-1,1.7-1.2,3.7-.6,5.6.6,1.9,1.8,3.5,3.5,4.4,1.1.6,2.3.9,3.6.9,2.7,0,5.2-1.5,6.5-3.8,10-18.2,18.5-36.6,25.3-54.8.7-1.8.6-3.8-.2-5.6-.8-1.8-2.3-3.2-4.2-3.9-.9-.3-1.7-.5-2.6-.5Z"/>
          </g>
          <g>
            <path class="cls-1" d="M630.9,490c-8.8,12.3-18.6,24.6-28.9,36.7-9.4-5.1-20-8.2-31.4-8.2-36.8,0-66.7,29.9-66.7,66.7s2.8,20.9,7.4,29.9c-11.5,9.4-23.1,18.1-34.5,26.1-26.6-27-64.2-44.5-70.6-47.4-3.9-1.7-8.3-1.7-12.1,0-6.3,2.8-44,20.4-70.6,47.4-11.5-8.1-23-16.9-34.5-26.2,4.6-9,7.4-19.1,7.4-29.9,0-36.8-29.9-66.7-66.7-66.7s-22,3.1-31.3,8.2c-6-7.1-12-14.2-17.5-21.4-5-6.5-14.3-7.7-20.8-2.7-6.5,5-7.7,14.3-2.7,20.8,5.9,7.6,12.2,15.2,18.6,22.7-8,11-12.9,24.5-12.9,39.1,0,36.8,29.9,66.7,66.7,66.7s29.1-5.3,40.4-14c11.7,9.5,23.5,18.6,35.3,26.9-5.5,9.8-8.9,20.3-8.9,31.5,0,57.1,87.7,98,97.7,102.4,1.9.9,4,1.3,6.1,1.3s4.1-.4,6.1-1.3c10-4.5,97.7-45.4,97.7-102.4s-3.5-21.8-9-31.6c11.7-8.3,23.5-17.2,35.3-26.8,11.2,8.6,25.1,13.9,40.3,13.9,36.8,0,66.7-29.9,66.7-66.7s-4.9-28.1-12.9-39.1c10.9-12.8,21.2-25.8,30.6-38.8,4.8-6.7,3.2-15.9-3.4-20.7-6.7-4.8-15.9-3.2-20.7,3.4ZM192.7,585.1c0-20.4,16.6-37,37-37s37,16.6,37,37-3.1,16.6-8.2,22.9c-.2.2-.5.3-.7.5-.2.3-.3.6-.5.8-6.8,7.7-16.6,12.7-27.7,12.7-20.4,0-37-16.6-37-37ZM400.2,768.8c-24.4-12.2-74.1-43-74.1-72.5s49.7-60.3,74.1-72.5c24.4,12.2,74.1,43,74.1,72.5s-49.7,60.3-74.1,72.5ZM570.6,622.2c-20.4,0-37-16.6-37-37s16.6-37,37-37,37,16.6,37,37-16.6,37-37,37Z"/>
            <path class="cls-1" d="M400.2,807.4c-3.1,0-6.2-.7-9.1-1.9-4.8-2.2-30.2-13.9-54.1-32.4-31.8-24.6-48-50.5-48-76.8s2.3-19.5,6.8-29.2c-8.3-6-16.9-12.6-26-19.9-12.1,7.9-25.8,12.1-40.1,12.1-40.9,0-74.1-33.2-74.1-74.1s3.8-26.9,11.1-38.6c-5.2-6.2-10.3-12.4-15.2-18.7-3.6-4.7-5.2-10.5-4.4-16.4.8-5.9,3.8-11.1,8.5-14.7,4.7-3.6,10.5-5.2,16.4-4.4,5.9.8,11.1,3.8,14.8,8.5,4.4,5.7,9.1,11.4,13.6,16.7,9.5-4.3,19.4-6.4,29.4-6.4,40.9,0,74.1,33.2,74.1,74.1s-1.9,18.7-5.7,27.8c8.8,7,16.9,13.2,24.6,18.8,26.9-25.3,61.4-41.5,68.3-44.6,5.8-2.6,12.4-2.6,18.2,0,6.9,3.1,41.3,19.1,68.3,44.5,8.1-5.8,16.3-12.1,24.6-18.7-3.8-9.1-5.7-18.4-5.7-27.8,0-40.9,33.2-74.1,74.1-74.1s19.9,2.1,29.4,6.4c9.6-11.5,17.7-21.9,24.8-31.8,3.5-4.8,8.6-8,14.4-9,5.9-1,11.8.4,16.6,3.9,10,7.2,12.2,21.1,5.1,31-7.9,11-16.9,22.5-27.3,35,7.3,11.7,11.1,24.9,11.1,38.6,0,40.9-33.2,74.1-74.1,74.1s-27.9-4.2-40-12.1c-8.7,7-17.5,13.6-26.1,19.8,4.6,9.8,6.9,19.6,6.9,29.3,0,26.3-16.1,52.2-48,76.8-24,18.5-49.3,30.2-54.1,32.4-2.8,1.3-6,1.9-9.1,1.9ZM270.3,628.4l4.5,3.7c12.6,10.2,24,18.9,34.9,26.6l5.5,3.9-3.3,5.8c-5.3,9.4-8,18.8-8,27.9,0,42.5,58.6,80.2,93.3,95.7,1.9.8,4.2.8,6.1,0,4.6-2,28.5-13.1,51.1-30.6,19.3-14.9,42.2-38.3,42.2-65.1s-2.7-18.5-8-28l-3.3-5.8,5.5-3.9c11.5-8.1,23.3-17,34.9-26.5l4.5-3.7,4.6,3.6c10.6,8.1,23,12.4,35.8,12.4,32.7,0,59.3-26.6,59.3-59.3s-4-24.4-11.5-34.7l-3.4-4.7,3.8-4.4c11.7-13.9,21.6-26.4,30.2-38.3,2.4-3.3,1.6-8-1.7-10.3-1.6-1.2-3.6-1.6-5.5-1.3-2,.3-3.7,1.4-4.8,3h0c-8.2,11.5-17.8,23.6-29.3,37.2l-3.9,4.6-5.3-2.8c-9-4.9-18.4-7.3-27.8-7.3-32.7,0-59.3,26.6-59.3,59.3s2.2,17.9,6.6,26.6l2.7,5.3-4.7,3.8c-11.8,9.6-23.6,18.5-34.9,26.4l-5.1,3.6-4.4-4.5c-26.3-26.6-64.1-43.9-68.3-45.8-1.9-.9-4.1-.9-6.1,0-4.2,1.9-42.3,19.4-68.4,45.9l-4.4,4.5-5.1-3.6c-10.7-7.5-22.1-16.2-34.9-26.5l-4.7-3.8,2.7-5.3c4.4-8.7,6.6-17.6,6.6-26.6,0-32.7-26.6-59.3-59.3-59.3s-18.8,2.5-27.8,7.3l-5.3,2.8-3.9-4.6c-5.5-6.5-11.9-14.1-17.7-21.7-1.2-1.6-3-2.6-4.9-2.8-2-.3-3.9.3-5.5,1.5-1.6,1.2-2.6,3-2.8,4.9s.3,3.9,1.5,5.5c5.8,7.5,12,14.9,18.4,22.5l3.8,4.4-3.4,4.7c-7.5,10.3-11.5,22.3-11.5,34.7,0,32.7,26.6,59.3,59.3,59.3s25.2-4.3,35.8-12.4l4.6-3.6ZM400.2,777.1l-3.3-1.7c-13.1-6.5-78.2-40.9-78.2-79.1s65.1-72.6,78.2-79.1l3.3-1.7,3.3,1.7c13.1,6.5,78.2,40.9,78.2,79.1s-65.1,72.6-78.2,79.1l-3.3,1.7ZM400.2,632.1c-32.7,17-66.7,43.7-66.7,64.2s33.9,47.3,66.7,64.2c32.7-17,66.7-43.7,66.7-64.2s-33.9-47.3-66.7-64.2ZM570.6,629.6c-24.5,0-44.5-19.9-44.5-44.5s19.9-44.5,44.5-44.5,44.5,19.9,44.5,44.5-19.9,44.5-44.5,44.5ZM570.6,555.5c-16.3,0-29.6,13.3-29.6,29.6s13.3,29.6,29.6,29.6,29.6-13.3,29.6-29.6-13.3-29.6-29.6-29.6ZM229.8,629.6c-24.5,0-44.5-19.9-44.5-44.5s19.9-44.5,44.5-44.5,44.5,19.9,44.5,44.5-3.4,19.5-9.8,27.6l-.6.6s0,0-.1.1c0,.1-.1.2-.2.3l-.4.6c-8.5,9.7-20.7,15.3-33.3,15.3ZM229.8,555.5c-16.3,0-29.6,13.3-29.6,29.6s13.3,29.6,29.6,29.6,15.9-3.4,21.6-9.6c.2-.4.5-.8.9-1.3v-.2c.5-.4.8-.7,1.1-1,4-5.2,6-11.3,6-17.6,0-16.3-13.3-29.6-29.6-29.6Z"/>
          </g>
          <g>
            <path class="cls-1" d="M92.6,296.5c-1.2-8.1-8.7-13.6-16.8-12.5-8.1,1.2-13.7,8.7-12.5,16.8,2.7,18,6.5,37.5,11.6,59.3l14.4-3.4,14.1-4.8c-4.6-19.6-8.3-38.3-10.8-55.5Z"/>
            <path class="cls-1" d="M69.4,369.1l-1.7-7.2c-5.2-21.9-9-41.5-11.8-60-1.8-12.1,6.6-23.4,18.7-25.2,12.2-1.7,23.5,6.7,25.2,18.7h0c2.5,17,6.1,35.5,10.7,54.9l1.5,6.6-21.2,7.2-21.6,5.1ZM77.9,291.3c-.4,0-.7,0-1.1,0-4,.6-6.8,4.4-6.2,8.4,2.4,16,5.6,32.9,9.8,51.5l6.9-1.6,7.4-2.5c-4-17.4-7.1-34.1-9.4-49.6h0c-.6-3.7-3.7-6.3-7.4-6.3Z"/>
          </g>
        </g>
      </g>
    </g>
  </g>
</svg>