<?xml version="1.0" encoding="UTF-8"?>
<svg xmlns="http://www.w3.org/2000/svg" version="1.1" viewBox="0 0 800 800">
  <defs>
    <style>
      .cls-1 {
        fill: #c98e18;
      }
    </style>
  </defs>
  <!-- Generator: Adobe Illustrator 28.6.0, SVG Export Plug-In . SVG Version: 1.2.0 Build 709)  -->
  <g>
    <g id="Jewelry">
      <g id="SVGRepo_iconCarrier">
        <g>
          <g>
            <path class="cls-1" d="M627.3,326.8c9.8-41.6,3.5-84.4-17.8-120.3-34.9-58.8-90-85.5-130.2-97.5-42.3-12.7-76.4-12.2-79.3-12.1-6.2-.2-107.4-1.5-178.2,69.2-2.1,2.1-2.1,5.5,0,7.6,2.1,2.1,5.5,2.1,7.6,0,68.1-68.1,169.4-66.1,170.4-66.1.1,0,.2,0,.3,0,1.4,0,136.7-2.6,200.1,104.3,19.9,33.6,25.8,73.5,16.6,112.4-11.4,48.4-36.1,115.7-88.8,165-4-2.9-8.9-4.5-13.9-4.5-13.1,0-23.8,10.7-23.8,23.8s.5,5.8,1.5,8.4c-21,13-44.3,22.5-69.4,28.4-3.4-9.2-12.1-15.6-22.4-15.6s-19,6.4-22.3,15.6c-25-5.9-48.1-15.3-69-28.1,1.1-2.7,1.6-5.7,1.6-8.7,0-13.1-10.7-23.8-23.8-23.8s-10.2,1.7-14.2,4.7c-52.9-49.3-77.6-116.7-89-165.2-6.2-26.3-5.5-53.7,2.1-79.2.9-2.9-.8-5.9-3.6-6.7-2.9-.8-5.9.8-6.7,3.6-8.1,27.3-8.9,56.6-2.3,84.7,11.8,50,37.5,119.8,92.6,170.9-1.7,3.3-2.6,7-2.6,10.8,0,9.8,6,18.3,14.6,21.9-18.1,27.4-19.6,39.1-19.6,42.2,0,15.9,12.9,28.8,28.8,28.8s28.8-12.9,28.8-28.8-10.8-28.8-19.6-42.1c2.5-1,4.8-2.5,6.8-4.4,22.3,13.8,47.1,23.8,73.8,30,.9,8.8,6.7,16.2,14.6,19.5-11.5,17-38.7,59.4-38.7,79.8s21.4,47.7,47.7,47.7,47.8-21.4,47.8-47.7-27.2-62.8-38.7-79.8c7.9-3.3,13.7-10.7,14.7-19.5,26.8-6.2,51.7-16.3,74.1-30.2,2.1,1.9,4.4,3.5,7,4.5-8.8,13.3-19.6,31.9-19.6,42.1,0,15.9,12.9,28.8,28.8,28.8s28.8-12.9,28.8-28.8-12-30.6-19.6-42.1c8.5-3.6,14.6-12.1,14.6-21.9s-1-7.7-2.8-11.1c54.9-51.1,80.5-120.7,92.3-170.6ZM304.5,572.6c0,9.9-8.1,18-18,18s-18-8.1-18-18,8.7-22.3,18-36.5c10.9,16.6,18,30.9,18,36.5ZM297.1,516c-2.1,3-5.3,4.9-8.9,5.4-.5-.2-1-.3-1.6-.3-.7,0-1.3.1-2,.3-6.3-.9-11.3-6.4-11.3-12.9s1-5.9,3-8.3c2.5-3,6.2-4.7,10.1-4.7,7.2,0,13,5.8,13,13,0,2.7-.8,5.3-2.4,7.5ZM436.9,655.4c0,20.4-16.6,37-37,37s-37-16.6-37-37,23.6-54.2,37-73.9c13.3,19.7,37,58.1,37,73.9ZM400,566.6c-7.2,0-13-5.8-13-13s0-.9,0-1.3c.7-6.7,6.2-11.7,13-11.7s12.3,5,13,11.7c0,.4,0,.9,0,1.3,0,7.2-5.9,13-13,13ZM532,572.6c0,9.9-8.1,18-18,18s-18-8.1-18-18,7.1-19.9,18-36.5c9.3,14.1,18,30.1,18,36.5ZM515.7,521.5c-.6-.2-1.2-.3-1.9-.3-.5,0-1.1.1-1.6.3-3.6-.5-6.9-2.5-9-5.6-1.5-2.2-2.3-4.7-2.3-7.3,0-7.2,5.8-13,13-13s7.4,1.7,9.9,4.6c0,0,0,0,0,0,2,2.3,3.1,5.4,3.1,8.5,0,6.6-5,12.1-11.3,12.9Z"/>
            <path class="cls-1" d="M400,704c-26.8,0-48.5-21.8-48.5-48.5s26.4-61.7,38.3-79.5c-7.7-3.5-13.1-10.8-14.2-19.2-26.4-6.1-51-16.1-73-29.7-1.7,1.5-3.7,2.8-5.7,3.7,8.9,13.6,19.2,31.6,19.2,41.8,0,16.3-13.3,29.6-29.6,29.6s-29.6-13.3-29.6-29.6,1.4-14.7,19.2-41.8c-8.7-4.1-14.2-12.7-14.2-22.2s.8-7.3,2.4-10.6c-55.1-51.4-80.7-121.3-92.4-170.9-6.7-28.3-5.9-57.7,2.3-85.1,1-3.3,4.4-5.1,7.7-4.2,1.6.5,2.9,1.5,3.7,3,.8,1.5,1,3.1.5,4.7-7.6,25.4-8.3,52.6-2.1,78.8,11.3,47.8,35.8,115.1,88.3,164.3,4.2-3,9.1-4.5,14.2-4.5,13.6,0,24.6,11,24.6,24.6s-.5,5.7-1.5,8.4c20.4,12.5,43.2,21.7,67.6,27.5,3.7-9.3,12.8-15.4,22.8-15.4s19.1,6.2,22.8,15.4c24.5-5.8,47.4-15.2,68-27.8-.9-2.6-1.4-5.3-1.4-8.1,0-13.6,11-24.6,24.6-24.6s9.8,1.5,13.9,4.3c52.4-49.2,76.9-116.4,88.2-164.1,9.1-38.7,3.3-78.4-16.5-111.8-32.7-55.1-84.8-80.4-122.8-91.9-42.2-12.8-76.2-12-76.5-12h-.3c-.3,0-25.8-.5-59.8,7.5-30.8,7.3-74.9,23.3-110,58.4-2.4,2.4-6.3,2.4-8.7,0-2.4-2.4-2.4-6.3,0-8.7,71.6-71.6,174.4-69.6,178.7-69.5,3.7,0,37.6-.4,79.5,12.1,40.3,12.1,95.6,38.8,130.6,97.8,21.4,36.2,27.8,79.1,17.9,120.9h0c-11.7,49.5-37.2,119.3-92.1,170.6,1.7,3.4,2.6,7.2,2.6,11,0,9.6-5.6,18.2-14.2,22.3,7.4,11.4,19.2,31.1,19.2,41.8,0,16.3-13.3,29.6-29.6,29.6s-29.6-13.3-29.6-29.6,10.3-28.2,19.2-41.8c-2.2-1-4.2-2.3-6-3.9-22.2,13.7-46.8,23.7-73.3,29.9-1.1,8.4-6.5,15.7-14.2,19.2,12,17.7,38.3,59.2,38.3,79.5s-21.8,48.5-48.5,48.5ZM302.4,525.1l.5.3c22.2,13.7,46.9,23.8,73.6,29.9h.5c0,.1,0,.7,0,.7.9,8.4,6.3,15.6,14.2,18.9l.9.4-.5.8c-11.6,17.2-38.6,59.2-38.6,79.4s21.1,47,47,47,47-21.1,47-47-27-62.2-38.6-79.4l-.5-.8.9-.4c7.9-3.2,13.3-10.5,14.2-18.9v-.6c0,0,.6-.1.6-.1,26.7-6.2,51.6-16.3,73.9-30.1l.5-.3.4.4c2,1.9,4.3,3.3,6.8,4.4l.9.4-.5.8c-8.9,13.5-19.5,31.7-19.5,41.7,0,15.5,12.6,28,28,28s28-12.6,28-28-12.2-30.6-19.5-41.7l-.5-.8.9-.4c8.6-3.6,14.1-12,14.1-21.2s-.9-7.4-2.7-10.8l-.3-.5.4-.4c54.9-51.1,80.4-120.8,92-170.2h0c9.8-41.4,3.5-83.9-17.7-119.8-34.7-58.6-89.7-85.2-129.7-97.1-41.7-12.5-75.4-12.2-79.1-12.1-4.4-.1-106.5-2.1-177.6,69-1.8,1.8-1.8,4.7,0,6.5,1.8,1.8,4.7,1.8,6.5,0,68.7-68.7,170-66.4,171-66.3h.3c.3,0,34.6-.8,77,12.1,38.3,11.6,90.8,37.1,123.7,92.6,20,33.7,25.9,73.9,16.7,112.9-11.4,48.1-36,115.9-89.1,165.3l-.5.4-.5-.4c-4-2.9-8.6-4.4-13.5-4.4-12.7,0-23,10.3-23,23s.5,5.5,1.5,8.2l.2.6-.5.3c-21.1,13-44.5,22.6-69.7,28.5l-.7.2-.2-.7c-3.3-9-12-15.1-21.6-15.1s-18.3,6.1-21.6,15.1l-.2.7-.7-.2c-25-5.9-48.3-15.4-69.2-28.2l-.6-.3.2-.6c1.1-2.7,1.6-5.5,1.6-8.4,0-12.7-10.3-23-23-23s-9.8,1.6-13.8,4.6l-.5.4-.5-.4c-53.2-49.5-77.9-117.4-89.3-165.6-6.2-26.4-5.5-54,2.1-79.6.4-1.2.2-2.4-.4-3.5s-1.6-1.9-2.7-2.2c-2.4-.7-5,.7-5.7,3.1-8.1,27.2-8.9,56.3-2.3,84.3,11.7,49.6,37.2,119.4,92.4,170.6l.4.4-.3.5c-1.7,3.3-2.5,6.9-2.5,10.5,0,9.2,5.5,17.5,14.1,21.2l.9.4-.5.8c-18.1,27.3-19.5,38.8-19.5,41.7,0,15.5,12.6,28,28,28s28-12.6,28-28-10.6-28.2-19.5-41.7l-.5-.8.9-.4c2.4-1,4.7-2.4,6.6-4.2l.4-.4ZM400,693.2c-20.8,0-37.7-16.9-37.7-37.7s30.9-65.2,37.1-74.4l.6-1,.6,1c6.2,9.2,37.1,55.9,37.1,74.4s-16.9,37.7-37.8,37.7ZM400,582.9c-7.4,11-36.2,55.1-36.2,72.5s16.2,36.2,36.2,36.2,36.2-16.2,36.2-36.2-28.8-61.5-36.2-72.5ZM514,591.4c-10.4,0-18.8-8.4-18.8-18.8s7-19.9,18.2-37l.7-1,.7,1c8.8,13.3,18.2,30,18.2,37,0,10.4-8.4,18.8-18.8,18.8ZM514,537.5c-10.5,16.1-17.3,29.8-17.3,35.1,0,9.5,7.7,17.2,17.3,17.2s17.3-7.7,17.3-17.2-6.8-19-17.3-35.1ZM286.5,591.4c-10.4,0-18.8-8.4-18.8-18.8s9.4-23.6,18.2-37l.7-1,.7,1c11.2,17,18.2,31.2,18.2,37,0,10.4-8.4,18.8-18.8,18.8ZM286.5,537.5c-10.5,16.1-17.3,29.8-17.3,35.1,0,9.5,7.7,17.2,17.3,17.2s17.3-7.7,17.3-17.2-6.8-19-17.3-35.1ZM400,567.4c-7.6,0-13.8-6.2-13.8-13.8s0-.9,0-1.4c.7-7.1,6.6-12.4,13.7-12.4s13.1,5.3,13.8,12.4c0,.5,0,.9,0,1.4,0,7.6-6.2,13.8-13.8,13.8ZM400,541.3c-6.3,0-11.6,4.7-12.2,11,0,.4,0,.8,0,1.2,0,6.8,5.5,12.2,12.2,12.2s12.3-5.5,12.3-12.2c0-.4,0-.8,0-1.2-.6-6.3-5.9-11-12.2-11ZM515.7,522.3h-.2c-.6-.3-1.2-.4-1.7-.3-.4,0-.8,0-1.3.3h-.2c0,0-.2,0-.2,0-3.9-.5-7.4-2.7-9.6-5.9-1.6-2.3-2.4-5-2.4-7.8,0-7.6,6.2-13.8,13.8-13.8s7.7,1.7,10.4,4.7h.2c0,0,0,.3,0,.3,2.1,2.5,3.2,5.6,3.2,8.8,0,6.9-5.1,12.8-12,13.7h-.2ZM513.9,520.4c.6,0,1.2.1,1.9.3,6-.9,10.4-6.1,10.4-12.1s-1-5.8-2.9-8h0c-2.3-2.8-5.7-4.3-9.2-4.3-6.8,0-12.2,5.5-12.2,12.2s.7,4.9,2.1,6.9c1.9,2.8,5,4.7,8.3,5.2.6-.2,1.1-.3,1.6-.3,0,0,0,0,.1,0ZM284.8,522.2h-.2c-6.8-1-11.9-6.8-11.9-13.7s1.1-6.3,3.1-8.8c2.6-3.2,6.5-5,10.7-5,7.6,0,13.8,6.2,13.8,13.8,0,2.9-.9,5.6-2.5,7.9h0c-2.2,3.2-5.6,5.2-9.4,5.7h-.2s-.2,0-.2,0c-.5-.2-.9-.3-1.3-.3-.5,0-1.1,0-1.7.3h-.2ZM286.5,496.3c-3.7,0-7.1,1.6-9.5,4.5-1.8,2.2-2.8,4.9-2.8,7.8,0,6,4.5,11.2,10.4,12.1.7-.2,1.4-.3,2.1-.3.5,0,1,.1,1.6.3,3.3-.5,6.2-2.3,8.2-5.1h0c1.5-2.1,2.2-4.5,2.2-7,0-6.8-5.5-12.2-12.2-12.2Z"/>
          </g>
          <g>
            <path class="cls-1" d="M193.3,212.3c.9.5,1.8.8,2.8.8,1.8,0,3.6-.9,4.6-2.6.5-.8.9-1.5,1.4-2.3,1.6-2.5.8-5.9-1.7-7.4-2.5-1.6-5.9-.8-7.4,1.7-.5.8-1,1.6-1.5,2.4-1.5,2.5-.7,5.9,1.8,7.4Z"/>
            <path class="cls-1" d="M196.1,213.8c-1.1,0-2.2-.3-3.2-.9h0c-2.9-1.8-3.9-5.6-2.1-8.5.5-.8,1-1.6,1.5-2.4.9-1.4,2.2-2.4,3.8-2.7,1.6-.4,3.3,0,4.7.8,2.9,1.8,3.8,5.6,2,8.5-.5.8-.9,1.5-1.4,2.3-1.1,1.9-3.1,3-5.3,3ZM193.7,211.6c.7.4,1.5.7,2.4.7,1.6,0,3.1-.8,4-2.2.5-.8.9-1.5,1.4-2.3,1.3-2.2.7-5-1.5-6.4-1-.7-2.3-.9-3.5-.6-1.2.3-2.2,1-2.9,2.1-.5.8-1,1.6-1.5,2.4-1.3,2.2-.6,5,1.6,6.3h0Z"/>
          </g>
          <g>
            <path class="cls-1" d="M480.3,384.7c-.3.3-.7.5-1,.8-2.4,1.8-2.9,5.1-1.1,7.5,1.1,1.4,2.7,2.2,4.3,2.2s2.2-.3,3.2-1.1c.4-.3.9-.7,1.3-1,2.3-1.8,2.7-5.2.9-7.6-1.8-2.3-5.2-2.7-7.6-.9Z"/>
            <path class="cls-1" d="M482.4,396c-2,0-3.8-.9-5-2.5-2-2.7-1.4-6.6,1.3-8.6.3-.3.7-.5,1-.8h0c2.7-2.1,6.6-1.6,8.7,1,2.1,2.7,1.7,6.6-1,8.7-.4.3-.9.7-1.3,1-1.1.8-2.3,1.2-3.7,1.2ZM480.8,385.3c-.3.3-.7.5-1,.8-2,1.5-2.5,4.4-1,6.4.9,1.2,2.2,1.9,3.7,1.9s1.9-.3,2.7-.9c.4-.3.9-.6,1.3-1,2-1.6,2.3-4.5.8-6.5-1.6-2-4.5-2.3-6.5-.8h0Z"/>
          </g>
          <g>
            <path class="cls-1" d="M457.3,403.5c3,0,5.4-2.4,5.4-5.4s-2.4-5.4-5.4-5.4c-20.4,0-37-16.6-37-37s23.6-54.1,37-73.9c5.2,7.8,14.3,21.7,22.1,35.9,8.1,14.7,13.1,26.5,14.5,34.2h0c.3,1.4.4,2.7.4,3.9,0,3.2-.4,6.3-1.2,9.3-.7,2.9,1,5.8,3.9,6.6.5.1.9.2,1.4.2,2.4,0,4.6-1.6,5.2-4,1-3.9,1.5-7.9,1.5-12s-.2-3.7-.6-5.8c0,0,0,0,0,0-1.6-9-6.9-21.5-15.6-37.4-7.9-14.4-16.9-28.2-22.2-36.2,13.2-4,22.9-16.3,22.9-30.8s-14.4-32.2-32.2-32.2-32.2,14.4-32.2,32.2,9.7,26.8,22.9,30.8c-11.6,17.2-38.5,59.1-38.5,79.4,0,26.3,21.4,47.8,47.8,47.8ZM435.9,245.5c0-11.8,9.6-21.4,21.4-21.4s21.4,9.6,21.4,21.4-9.6,21.4-21.4,21.4c-11.8,0-21.4-9.6-21.4-21.4Z"/>
            <path class="cls-1" d="M457.3,404.2c-12.9,0-25.1-5.1-34.3-14.2-9.2-9.2-14.2-21.4-14.2-34.3,0-20.2,26.1-61.3,38-79-13.3-4.5-22.4-17.2-22.4-31.2s14.8-33,33-33,33,14.8,33,33-9.2,26.8-22.5,31.2c5.9,8.8,14.2,21.8,21.7,35.4,8.8,15.9,14.1,28.6,15.7,37.6h0c.4,2.2.6,4.2.6,6,0,4.1-.5,8.2-1.5,12.2-.7,2.7-3.2,4.6-6,4.6s-1,0-1.5-.2c-3.3-.9-5.3-4.2-4.4-7.5.8-3,1.2-6,1.2-9.1s-.1-2.3-.4-3.7h0c-1.4-7.7-6.4-19.4-14.4-33.9-7.6-13.8-16.4-27.4-21.4-34.8-7.4,11-36.2,55.1-36.2,72.5s16.2,36.2,36.2,36.2,6.2,2.8,6.2,6.2-2.8,6.2-6.2,6.2ZM457.3,214.1c-17.3,0-31.4,14.1-31.4,31.4s9.2,26.1,22.3,30.1l1,.3-.6.9c-11.5,17.1-38.3,58.9-38.3,79,0,12.5,4.9,24.3,13.8,33.2,8.9,8.9,20.7,13.8,33.2,13.8s4.6-2.1,4.6-4.6-2.1-4.6-4.6-4.6c-20.8,0-37.8-16.9-37.8-37.8s30.9-65.1,37.1-74.3l.6-1,.6,1c4.8,7.2,14.2,21.5,22.1,35.9,8.1,14.7,13.2,26.6,14.6,34.4h0c.3,1.5.4,2.9.4,4,0,3.2-.4,6.4-1.2,9.5-.6,2.5.8,5,3.3,5.6.4,0,.8.1,1.2.1,2.1,0,3.9-1.4,4.5-3.5,1-3.8,1.5-7.8,1.5-11.8s-.2-3.6-.5-5.6h0c-1.6-9-6.8-21.5-15.5-37.3-7.7-14-16.3-27.4-22.2-36.1l-.6-.9,1-.3c13.2-4,22.4-16.3,22.4-30.1s-14.1-31.4-31.4-31.4ZM457.3,267.7c-12.2,0-22.2-10-22.2-22.2s10-22.2,22.2-22.2,22.2,10,22.2,22.2-10,22.2-22.2,22.2ZM457.3,224.8c-11.4,0-20.6,9.3-20.6,20.6s9.3,20.6,20.6,20.6,20.6-9.3,20.6-20.6-9.3-20.6-20.6-20.6Z"/>
          </g>
          <g>
            <path class="cls-1" d="M365.6,384.7c-.3.3-.7.5-1,.8-2.4,1.8-2.9,5.1-1.1,7.5,1.1,1.4,2.7,2.2,4.3,2.2s2.2-.3,3.2-1.1c.4-.3.9-.7,1.3-1,2.3-1.9,2.7-5.2.9-7.6-1.8-2.3-5.2-2.7-7.6-.9Z"/>
            <path class="cls-1" d="M367.8,396c-2,0-3.8-.9-5-2.5-2-2.7-1.4-6.6,1.3-8.6.3-.2.7-.5,1-.8,1.3-1,2.9-1.5,4.5-1.3,1.6.2,3.1,1,4.1,2.3,2.1,2.7,1.7,6.6-1,8.7-.4.4-.9.7-1.3,1-1.1.8-2.3,1.2-3.7,1.2ZM368.9,384.3c-1,0-2,.3-2.9,1h0c-.3.3-.7.5-1,.8-2,1.5-2.5,4.4-1,6.4.9,1.2,2.3,1.9,3.7,1.9s1.9-.3,2.7-.9c.4-.3.9-.7,1.3-1,2-1.6,2.3-4.5.7-6.5-.8-1-1.9-1.6-3.1-1.7-.2,0-.4,0-.5,0Z"/>
          </g>
          <g>
            <path class="cls-1" d="M342.7,403.5c3,0,5.4-2.4,5.4-5.4s-2.4-5.4-5.4-5.4c-20.4,0-37-16.6-37-37s23.6-54.1,37-73.9c5.2,7.8,14.3,21.7,22.1,35.9,8.1,14.7,13.1,26.5,14.5,34.2h0c.3,1.5.4,2.8.4,3.9,0,3.2-.4,6.3-1.2,9.3-.7,2.9,1,5.8,3.9,6.6.5.1.9.2,1.4.2,2.4,0,4.6-1.6,5.2-4,1-3.9,1.5-7.9,1.5-12s-.2-3.7-.6-5.8c0,0,0,0,0,0-1.6-9-6.9-21.5-15.6-37.4-7.8-14.2-16.8-28.1-22.3-36.2,13.2-4,22.9-16.3,22.9-30.8s-14.4-32.2-32.2-32.2-32.2,14.4-32.2,32.2,9.7,26.8,22.9,30.8c-11.6,17.2-38.5,59.1-38.5,79.4,0,26.3,21.4,47.8,47.8,47.8ZM321.2,245.5c0-11.8,9.6-21.4,21.4-21.4s21.4,9.6,21.4,21.4-9.6,21.4-21.4,21.4c-11.8,0-21.4-9.6-21.4-21.4Z"/>
            <path class="cls-1" d="M342.7,404.2c-12.9,0-25.1-5.1-34.3-14.2-9.2-9.2-14.2-21.4-14.2-34.3,0-20.2,26.1-61.3,38-79-13.3-4.5-22.4-17.2-22.4-31.2s14.8-33,33-33,33,14.8,33,33-9.2,26.8-22.5,31.3c5,7.5,14,21.3,21.7,35.4,8.8,15.9,14.1,28.5,15.7,37.6v.2c.4,2.1.6,4.1.6,5.9,0,4.1-.5,8.2-1.5,12.2-.7,2.7-3.2,4.6-6,4.6s-1,0-1.5-.2c-3.3-.9-5.3-4.2-4.4-7.5.8-3,1.2-6,1.2-9.1s-.1-2.3-.4-3.7h0c-1.4-7.7-6.4-19.4-14.4-33.9-7.6-13.8-16.4-27.4-21.4-34.8-7.4,11-36.2,55.1-36.2,72.5s16.2,36.2,36.2,36.2,6.2,2.8,6.2,6.2-2.8,6.2-6.2,6.2ZM342.7,214.1c-17.3,0-31.4,14.1-31.4,31.4s9.2,26.1,22.3,30.1l1,.3-.6.9c-11.5,17.1-38.3,58.9-38.3,79,0,12.5,4.9,24.3,13.8,33.2,8.9,8.9,20.7,13.8,33.2,13.8s4.6-2.1,4.6-4.6-2.1-4.6-4.6-4.6c-20.8,0-37.8-16.9-37.8-37.8s30.9-65.1,37.1-74.3l.6-1,.6,1c4.8,7.2,14.1,21.4,22.1,35.9,8.1,14.7,13.2,26.6,14.6,34.4h0c.3,1.5.4,2.9.4,4,0,3.2-.4,6.4-1.2,9.5-.6,2.5.8,5,3.3,5.6.4,0,.8.1,1.2.1,2.1,0,3.9-1.4,4.5-3.5,1-3.8,1.5-7.8,1.5-11.8s-.2-3.5-.5-5.5v-.2c-1.7-8.9-6.9-21.4-15.6-37.1-8-14.6-17.4-28.9-22.2-36.1l-.6-.9,1-.3c13.2-4,22.4-16.3,22.4-30.1s-14.1-31.4-31.4-31.4ZM342.7,267.7c-12.2,0-22.2-10-22.2-22.2s10-22.2,22.2-22.2,22.2,10,22.2,22.2-10,22.2-22.2,22.2ZM342.7,224.8c-11.4,0-20.6,9.3-20.6,20.6s9.3,20.6,20.6,20.6,20.6-9.3,20.6-20.6-9.3-20.6-20.6-20.6Z"/>
          </g>
        </g>
      </g>
    </g>
  </g>
</svg>