<?xml version="1.0" encoding="UTF-8"?>
<svg xmlns="http://www.w3.org/2000/svg" version="1.1" viewBox="0 0 800 800">
  <defs>
    <style>
      .cls-1 {
        fill: #c98e18;
      }
    </style>
  </defs>
  <!-- Generator: Adobe Illustrator 28.6.0, SVG Export Plug-In . SVG Version: 1.2.0 Build 709)  -->
  <g>
    <g id="Layer_1">
      <g id="SVGRepo_iconCarrier">
        <g>
          <path class="cls-1" d="M100,466.7c-.1,165.7,134.1,300.1,299.8,300.2,165.7.1,300.1-134.1,300.2-299.8,0-129.5-82.9-244.5-205.9-285.1l34-52.8c6.7-10.4,7.1-23.6,1-34.4l-25-44.4c-5.9-10.5-17-17-29.1-17h-150c-12,0-23.2,6.5-29.1,17l-25,44.4c-6.1,10.8-5.7,24,1,34.4l34,52.8c-122.8,40.7-205.7,155.3-205.9,284.7ZM376.1,167.8l-37.2-57.8,5.6-10h111l5.6,10-37.2,57.8c-8.3-.8-16.3-1.1-23.9-1.1s-15.6.4-23.9,1.1h0ZM400,233.3c128.9,0,233.3,104.5,233.3,233.3s-104.5,233.3-233.3,233.3-233.3-104.5-233.3-233.3c.4-128.7,104.6-232.9,233.3-233.3Z"/>
          <path class="cls-1" d="M400,783.5h-.2c-84.6,0-164.1-33.1-223.9-92.9-59.8-59.9-92.7-139.4-92.6-224h0c.2-129.6,78.7-244.8,197.4-293.1l-22.7-35.4c-10.1-15.6-10.7-35.4-1.5-51.6l25-44.4c8.8-15.7,25.5-25.5,43.6-25.5h150c18,0,34.8,9.8,43.6,25.5l25,44.4c9.1,16.2,8.5,36-1.5,51.6l-22.7,35.3c55.1,22.3,102.3,59.3,137.4,107.9,39.3,54.4,60,118.6,60,185.6,0,84.6-33.1,164.1-92.9,223.9-59.8,59.7-139.3,92.6-223.8,92.6ZM116.7,466.7c0,156.2,126.9,283.4,283.1,283.5h.2c156.2,0,283.2-127,283.3-283.1,0-122.6-78.1-230.8-194.5-269.2l-20.4-6.7,45.6-70.9c3.4-5.2,3.6-11.8.5-17.2l-25-44.4c-3-5.3-8.5-8.5-14.5-8.5h-150c-6,0-11.6,3.3-14.5,8.5l-25,44.4c-3,5.4-2.8,12,.5,17.2l45.6,70.9-20.4,6.8c-116.1,38.5-194.3,146.5-194.5,268.9h0ZM400,716.7c-66.8,0-129.6-26-176.8-73.2s-73.2-110-73.2-176.8c.2-66.7,26.3-129.4,73.4-176.6,47.1-47.1,109.8-73.2,176.5-73.4h0c66.8,0,129.6,26,176.8,73.2s73.2,110,73.2,176.8-26,129.6-73.2,176.8-110,73.2-176.8,73.2ZM400.1,250c-119.1.4-216.3,97.6-216.7,216.7,0,119.4,97.2,216.6,216.7,216.6s216.7-97.2,216.7-216.7-97.2-216.6-216.6-216.7h0ZM432.5,185.3l-10.1-.9c-15.6-1.4-29.3-1.4-44.8,0l-10.1.9-48.1-74.7,15.3-27.3h130.5l15.3,27.3-48.1,74.7ZM363,116.7l21.7,33.8c5.2-.3,10.3-.4,15.3-.4s10.1.1,15.3.4l21.7-33.8h-74Z"/>
        </g>
      </g>
    </g>
  </g>
</svg>