<?xml version="1.0" encoding="UTF-8"?>
<svg xmlns="http://www.w3.org/2000/svg" version="1.1" viewBox="0 0 800 800">
  <defs>
    <style>
      .cls-1 {
        fill: #c98e18;
      }
    </style>
  </defs>
  <!-- Generator: Adobe Illustrator 28.6.0, SVG Export Plug-In . SVG Version: 1.2.0 Build 709)  -->
  <g>
    <g id="Layer_1">
      <g id="SVGRepo_iconCarrier">
        <g>
          <g>
            <path class="cls-1" d="M616.1,10.2c-13.1,7.2-12.5,17,2.5,35.4,31.7,39.4,45,66,66.4,134.9,1.8,5.9,4.5,9,9.2,11.2l6.3,3.1-5.1,3.9q-5.1,3.9-3.9,26.6c1.8,28,2,29.2,10,34.1,4.1,2.5,5.3,3.9,3.1,3.9-7.2,0-11.2,9.2-13.7,31.7-2.4,22.3-2.2,23.5,4.5,31.1q4.1,4.7,0,4.7c-6.3,0-11.8,8-15.9,22.5-11.2,41.3-34.3,84.4-65.4,121.6-12.7,15.1-13.7,17-12.7,23.9,1,7.2.8,7.6-3.1,5.5-6.1-3.3-11.6-1-26.2,10.4-22.7,17.8-22.5,17.6-22.5,25.3v7.4l-5.1-3.3c-2.9-1.8-7.2-2.9-9.8-2.2-9.4,2.2-39.4,16.3-42.7,20.2-5.9,6.7-4.7,14.7,3.7,21.9,8.2,7.4,7.8,7.4,32.9-3.3,19.4-8.2,23.5-12.1,23.7-21.9.2-6.5.4-6.9,4.3-4.1,7.8,5.5,14.3,3.5,32.5-10.4,18-13.5,21.2-18.4,19.4-28.4-.8-4.5-.4-4.7,7.6-3.7,8.2.8,8.8.6,21.2-13.1,28-30.6,56.2-80.1,70.7-124,8.4-25.5,8.8-33.1,2.9-39.4l-4.3-4.5,6.3-3.5c8.4-4.3,10.2-9.2,11.6-33.5,1.4-21.5,0-27.6-7.6-29.8-4.1-1.4-3.9-1.6,2.2-7,6.5-5.3,6.5-5.5,6.3-22.7-.2-9.6-1.2-21-2.2-25.5-1.8-8.4-8.2-15.3-13.9-15.3s-1.2-1.6,2.7-5.3c5.1-4.7,5.5-6.1,4.5-14.7-.6-5.3-4.1-18.8-7.6-30-13.5-42.1-32.9-79.1-59.3-113-16.8-21.8-23.7-25.9-33.7-20.4Z"/>
            <path class="cls-1" d="M504.8,589c-3.3,0-5.2-1.7-8.8-4.9l-.3-.2c-4.5-3.8-7.1-8.1-7.3-12.2-.2-3.4,1-6.7,3.7-9.7,1.8-2.1,11-6.9,19.1-10.7,10-4.7,19.3-8.5,23.7-9.5,2.6-.6,6.9.4,9.8,2.3l5.1,3.2v-7.5q0-7.5,22.1-24.8l.4-.3c7.6-6,12.5-9.2,16.2-10.7,3.8-1.5,6.7-1.4,10,.3,1.7.9,2.6,1.3,3.1.9.7-.5.5-2.4-.1-6.4-1-6.9,0-8.7,12.7-23.9,30.9-37,54.1-80.2,65.4-121.6,4.1-14.7,9.7-22.5,16-22.5s2.8,0,3-.4c.2-.5-.8-1.7-3-4.2-3.2-3.6-5.1-5.9-5.7-10-.6-4,0-9.5,1.2-21.1,1.2-11.3,2.9-19.2,5.1-24.3,1.1-2.6,2.4-4.4,3.8-5.6,1.4-1.2,3-1.8,4.8-1.8s1-.1,1.1-.3c.1-.4-.5-1.3-4.1-3.5-4.1-2.5-6.1-4.1-7.3-8.4-1.3-4.4-1.8-11.4-2.7-25.7q-1.2-22.7,3.9-26.6l5.1-3.8-6.3-3c-4.8-2.3-7.4-5.5-9.2-11.3-21.3-68.5-34.4-95-66.4-134.8-4.6-5.6-7.7-10.3-9.6-14.4-1.9-4.2-2.6-7.7-2-10.7.8-4,3.8-7.4,9.1-10.3h0c2.7-1.5,4.9-2.2,7.2-2.2,2.4,0,4.7.7,7.2,2.2,4.9,2.9,10.5,8.9,19.4,20.5,26.4,34,45.8,70.9,59.3,113,3.7,11.9,7,25.1,7.6,30,.5,4.4.7,6.8,0,8.8-.6,2-2,3.6-4.6,5.9-2.8,2.6-4,4.2-3.7,4.9.1.3.4.4,1,.4,2.8,0,5.8,1.6,8.4,4.5,2.7,2.9,4.6,6.8,5.5,10.8,1,4.6,2.1,16,2.2,25.6.1,8.6.2,12.9-.6,15.8-.8,2.8-2.3,4.2-5.7,6.9-3.5,3.1-5.1,4.5-5,5.3.1.6,1.1,1,2.7,1.6,4,1.2,6.1,3.4,7.2,7.7,1.1,4.2,1.2,10.6.4,22.1-.7,11.2-1.4,19.2-3.2,24.3-1.8,5-4.5,7.3-8.4,9.3l-6.3,3.4,4.3,4.5c6,6.4,5.4,14.2-2.9,39.5-7.1,21.6-17.6,44.7-30.3,67-12.7,22.3-26.7,42-40.4,57-6.4,7.1-9.5,10.4-12.2,12-2.7,1.7-4.9,1.5-9,1.1-4.7-.6-6.7-.8-7.4,0-.5.6-.5,1.6,0,3.6,1,5.4.4,9.1-2.3,12.9-2.7,3.9-7.5,8.3-17.1,15.5-9.7,7.4-15.5,11-20.2,12.5-4.6,1.5-8.2.9-12.4-2.1-1.5-1.1-2.4-1.7-3-1.7s-.2,0-.3,0c-.7.3-.8,2-.9,5.7-.2,9.9-4.4,13.8-23.7,21.9l-1.2.5c-12.9,5.5-18.8,7.9-22.7,7.9ZM536.5,541.5c-.6,0-1.2,0-1.7.2-4.3,1-13.6,4.8-23.6,9.5-10.1,4.8-17.6,9-19,10.7-2.7,3-3.9,6.3-3.6,9.7.3,4.1,2.8,8.3,7.3,12.1l.3.2q7.8,7,31.4-3l1.2-.5c19.3-8.1,23.5-12,23.7-21.8.1-3.8.2-5.4,1-5.7.6-.3,1.6.3,3.4,1.6,4.1,2.9,7.7,3.5,12.3,2.1,4.6-1.5,10.5-5.1,20.1-12.5,9.7-7.3,14.5-11.6,17.1-15.5,2.6-3.9,3.3-7.5,2.3-12.9-.3-1.8-.5-3,.1-3.7.8-.8,2.8-.7,7.5,0,4.2.4,6.3.5,9-1.1,2.7-1.6,5.8-4.9,12.2-12,27.9-30.5,56.3-80.3,70.7-124,8.3-25.3,8.8-33,2.9-39.4l-4.3-4.5h0s6.3-3.5,6.3-3.5c3.9-2,6.7-4.2,8.4-9.2,1.8-5.1,2.6-13.1,3.2-24.3.8-11.5.6-17.9-.4-22.1-1.1-4.3-3.1-6.5-7.1-7.7-1.6-.6-2.7-1-2.8-1.6-.2-.9,1.5-2.3,5-5.4,3.4-2.7,4.9-4.1,5.7-6.9.8-2.9.7-7.2.6-15.8-.2-9.5-1.2-21-2.2-25.5-.9-4-2.8-7.9-5.5-10.8-2.6-2.9-5.6-4.5-8.4-4.5s-1-.1-1.1-.4c-.3-.7.9-2.3,3.7-4.9,5.1-4.7,5.5-6.1,4.5-14.7-.6-5-3.9-18.2-7.6-30-13.5-42.1-32.9-79-59.2-113-8.8-11.4-14.6-17.6-19.4-20.5-4.8-2.9-9-2.9-14.3,0h0c-5.3,2.9-8.3,6.3-9.1,10.2-.6,3.1,0,6.6,2,10.7,1.9,4.1,5,8.8,9.6,14.4,17,21.1,27.7,37.4,37,56.4,9.5,19.2,18,41.9,29.4,78.5,1.8,5.8,4.4,8.9,9.2,11.2l6.4,3.1h0s-5.1,3.9-5.1,3.9q-5.1,3.9-3.9,26.5c1.9,28.3,2.1,29.3,10,34.1,2.9,1.8,4.3,3,4.2,3.6,0,.3-.4.4-1.1.4-3.6,0-6.4,2.4-8.6,7.4-2.2,5-3.8,13-5.1,24.3-1.3,11.6-1.8,17.1-1.2,21,.6,4.1,2.5,6.4,5.7,10,2.3,2.7,3.3,3.8,3,4.3-.2.4-1.2.4-3.1.4-6.3,0-11.8,7.8-15.9,22.5-11.3,41.4-34.5,84.6-65.4,121.6-12.7,15.2-13.7,17-12.7,23.9.6,4.1.8,6,0,6.5-.5.4-1.4,0-3.2-.9-3.2-1.7-6.2-1.8-9.9-.3-3.7,1.5-8.6,4.7-16.2,10.7l-.4.3q-22,17.3-22,24.8v7.6h0s-5.1-3.3-5.1-3.3c-2.3-1.5-5.5-2.4-8.1-2.4Z"/>
          </g>
          <g>
            <path class="cls-1" d="M158.6,20.2c-22.1,24.5-46.6,67.4-61.3,106.9-8,21.2-8.2,27-1.4,33.7,3.5,3.5,3.5,3.7-2.9,6.1-4.1,1.4-7.6,4.5-8.8,8-3.3,8-6.5,28.2-6.5,39.4s.8,10.4,5.5,14.1c4.5,3.5,5.1,4.7,2.7,6.1-1.6,1.2-3.9,2-4.7,2s-3.1,3.3-4.7,7.2c-2.2,5.5-2.7,11.8-1.6,27.2,1.4,19.2,1.6,20,8.4,26.4,3.9,3.7,6.1,6.7,4.9,6.7s-3.9,3.1-5.7,6.9c-3.1,6.5-3.1,8.2,1.4,27.2,12.3,53.3,37.2,106.7,67,143.2,6.5,8.4,7.8,9,15.7,8.2q8.4-.6,6.3,4.7c-3.1,8.6,1.6,16.8,18.6,31.5,12.9,11.2,16.3,13.3,22.9,13.3s8.6-1,9.6-2c1.4-1.4,1.8-.2,1.2,4.1-.4,3.5.4,8.2,2.2,11,3.5,5.1,32.1,22.7,40.9,24.7,5.1,1.4,13.3-1.6,16.1-5.9.8-1.2,1.6.2,1.6,3.1,0,8.2,6.9,15.3,17.4,18.2l9.4,2.7,8.6-8.2c4.7-4.5,11.6-10.2,15.5-12.9l6.7-4.7-19-5.7c-22.3-6.7-26-6.9-32.1-2.7-4.1,2.9-4.5,2.9-4.5-.6,0-7-5.9-12.5-24.3-22.9-18.2-10.4-23.9-12.1-30.6-8.6-3.1,1.6-3.5,1.2-2.7-3.9,1-7.8,0-9.2-18.6-26.6-14.9-13.5-16.8-14.7-23.7-13.9l-7.8.6,1-8.6c.8-7.8,0-10-9.2-22.5-27.2-37.2-43.3-72.7-55.6-123.2-4.7-18.6-6.1-21.9-11.4-25.5l-6.1-4.1,4.7-4.5c4.1-4.3,4.5-6.3,4.5-28.2s0-23.9-5.9-29.6c-5.3-5.3-5.5-6.1-2.2-7.2,6.7-2,8.8-7,12.3-29.2,3.9-23.5,3.7-25.5-2.7-32.7q-4.1-4.5-.2-4.5c7.4,0,11-4.9,18-23.5,13.3-36,33.1-70.9,55.8-98.7,10-12.5,11-19.4,4.5-27.8-3.3-4.1-5.9-5.3-12.1-5.3-6.8,0-9,1.4-17.2,10.4Z"/>
            <path class="cls-1" d="M312.9,594.8h0s-9.4-2.7-9.4-2.7c-5.1-1.4-9.5-3.9-12.6-7.1-3.1-3.3-4.8-7.1-4.8-11.1s-.4-3.3-.9-3.4c-.3,0-.5.2-.7.4-1.4,2.1-4,3.9-7.2,5.1-3.2,1.2-6.5,1.5-8.9.8-4.8-1.1-14.7-6.5-22.4-11.2-9.6-5.8-16.8-11.2-18.5-13.5-1.7-2.7-2.7-7.4-2.3-11.1.4-2.8.4-4.3-.1-4.6-.2-.1-.6,0-1,.5-1.1,1.1-5.7,2.1-9.6,2.1-6.5,0-10-2-22.9-13.3-16.8-14.6-21.7-22.8-18.6-31.5.9-2.4,1.4-3.7.9-4.3-.6-.8-2.7-.6-7.2-.3-4.1.4-6.3.4-8.4-.6-2.1-1.1-4-3.2-7.3-7.5-7.4-9-14.6-19.2-21.3-30.3-6.7-10.9-13-22.7-18.8-35-5.8-12.3-11-25.2-15.5-38.2-4.6-13.2-8.4-26.6-11.5-39.7-4.4-18.8-4.5-20.6-1.4-27.2,1.8-3.7,4.4-7,5.8-7s.2,0,.3-.1c.3-.7-1.9-3.4-5.2-6.5-6.7-6.3-6.9-7-8.4-26.4-1-15.3-.6-21.6,1.6-27.2,1.6-3.7,3.9-7.2,4.7-7.2s3-.8,4.7-2c.9-.5,1.4-1,1.4-1.6,0-.9-1-2.2-4.1-4.5-4.7-3.6-5.5-5.9-5.5-14.1s.8-13.2,2-20.9c1.3-8,3-14.7,4.5-18.5,1.2-3.4,4.7-6.5,8.8-8,3.5-1.4,5-2,5.1-2.8.2-.7-.7-1.7-2.3-3.2-3.7-3.6-5-6.9-4.8-11.4.2-4.6,1.9-10.9,6.2-22.3,7.2-19.4,16.9-39.8,27.9-59,11.1-19.3,22.6-35.8,33.4-47.8h0c8.2-9.1,10.5-10.4,17.2-10.4,6.1,0,8.8,1.2,12.1,5.3,3.4,4.4,4.6,8.2,4,12.4-.7,4.2-3.3,9-8.5,15.4-22.8,27.9-42.6,62.9-55.8,98.7-7,18.7-10.7,23.5-18,23.5s-2.7,0-2.8.4c-.2.5.8,1.6,3.1,4.1,6.4,7.2,6.5,9.3,2.7,32.7-3.5,22.3-5.5,27.2-12.3,29.2-1.2.4-2,.7-2.1,1.3-.2,1,1.2,2.6,4.4,5.8,5.9,5.7,5.9,6.2,5.9,29.7s-.1,16.9-.7,20.7c-.6,3.7-1.6,5.3-3.8,7.5l-4.7,4.5,6.1,4.1c2.5,1.7,4.3,3.5,6,7.2,1.6,3.7,3.2,9.3,5.5,18.4,12.2,50.2,28.3,85.9,55.6,123.2,9.1,12.3,10,14.6,9.2,22.5l-1,8.5,7.8-.6c3.5-.4,5.7-.3,8.9,1.6,3.3,2,7.8,6,14.8,12.3,9.5,8.9,14.2,13.4,16.7,16.9,2.4,3.5,2.5,5.7,1.9,9.7-.4,2.7-.6,4.2,0,4.6.4.3,1.3,0,2.6-.7,6.7-3.5,12.5-1.9,30.7,8.6,9.6,5.4,15.4,9.4,19.1,12.8,3.6,3.4,5.3,6.6,5.3,10.2s0,2.4.5,2.6c0,0,.2,0,.3,0,.6,0,1.7-.7,3.7-2.1,3-2.1,5.5-3.2,10-2.8,4.6.4,11.3,2.2,22.1,5.5l19.1,5.7h0s-6.7,4.7-6.7,4.7c-4,2.7-11,8.5-15.5,12.9l-8.6,8.2ZM285.1,570.4s0,0,.1,0c.6.2,1,1.6,1,3.5,0,8.1,6.8,15.3,17.3,18.1l9.4,2.7,8.6-8.2c4.6-4.4,11.5-10.1,15.5-12.9l6.7-4.6-18.9-5.7c-22-6.7-25.9-7-32-2.7-2.3,1.6-3.4,2.3-4,2-.5-.2-.5-1.1-.5-2.7,0-3.6-1.6-6.7-5.2-10.1-3.6-3.4-9.5-7.3-19-12.7-18.2-10.4-23.9-12-30.6-8.6-1.3.7-2.2,1.1-2.7.7-.6-.4-.5-2,0-4.7.5-3.9.5-6.2-1.9-9.7-2.4-3.5-7.2-8-16.6-16.9-7-6.4-11.5-10.4-14.8-12.3-3.2-1.9-5.3-2-8.8-1.6l-7.9.6h0s1-8.6,1-8.6c.8-7.9-.1-10.2-9.2-22.5-27.3-37.4-43.4-73.1-55.6-123.2-4.7-18.8-6.1-21.9-11.4-25.5l-6.2-4.1h0s4.7-4.5,4.7-4.5c2.1-2.2,3.2-3.8,3.8-7.5.6-3.7.7-9.7.7-20.7,0-23.4,0-23.9-5.9-29.6-3.2-3.2-4.6-4.8-4.4-5.8.2-.6.9-1,2.2-1.4,6.7-2,8.8-6.9,12.2-29.2,3.9-23.4,3.7-25.5-2.6-32.7-2.3-2.6-3.3-3.6-3.1-4.1.2-.4,1.1-.4,2.9-.4,7.3,0,11-4.8,17.9-23.5,13.2-35.7,33-70.8,55.8-98.7,5.2-6.4,7.8-11.2,8.4-15.4.7-4.2-.6-8-4-12.3-3.3-4.1-6-5.3-12-5.3-6.7,0-8.9,1.4-17.1,10.4h0c-21.9,24.3-46.5,67.3-61.3,106.9-4.3,11.4-6,17.7-6.2,22.3-.2,4.6,1.2,7.8,4.8,11.4,1.6,1.6,2.5,2.5,2.3,3.3-.2.9-1.6,1.5-5.2,2.9-4.1,1.4-7.6,4.6-8.8,7.9-3.2,7.7-6.5,28-6.5,39.4s.9,10.5,5.5,14.1c3.1,2.4,4.2,3.6,4.1,4.6,0,.6-.5,1.1-1.4,1.6-1.7,1.2-3.9,2-4.7,2s-3,3.1-4.7,7.1c-2.3,5.6-2.6,11.9-1.6,27.2,1.4,19.3,1.7,20,8.4,26.3,3.4,3.2,5.5,5.9,5.2,6.6,0,.1-.2.2-.3.2-1.1,0-3.7,2.8-5.7,6.9-3.1,6.6-3,8.4,1.4,27.1,12.2,53.2,37.3,106.8,67,143.2,6.5,8.4,7.7,9,15.7,8.2,4.6-.3,6.7-.5,7.3.3.5.7,0,2-.9,4.4-3.1,8.6,1.8,16.8,18.6,31.4,12.9,11.3,16.3,13.3,22.9,13.3s4.1-.2,5.9-.6c1.8-.4,3.1-.9,3.6-1.4.5-.5.9-.7,1.1-.5.5.3.6,1.7.2,4.7-.4,3.7.5,8.3,2.2,11,1.6,2.4,8.8,7.7,18.4,13.5,7.7,4.7,17.6,10.1,22.4,11.2,2.4.7,5.7.4,8.9-.8,3.2-1.2,5.8-3,7.2-5.1.2-.4.5-.5.6-.5Z"/>
          </g>
          <g>
            <path class="cls-1" d="M383.2,572.7c-47.6,12.9-79.7,50.9-84,99.7-2.7,31.7,9,62.7,32.7,86.4,34.3,34.3,83,42.7,126.5,21.7,69.1-33.5,84.2-124,30-178.2-15.1-15.1-35.4-26.4-54.8-30.4-14.5-3.1-37.8-2.7-50.5.8ZM430.4,626.3c13.5,4.5,29.6,20.6,34.1,34.1,5.5,16.1,4.5,31.1-2.9,45.8-9.4,19-24.9,29.8-46.4,32.5-17,1.8-31.7-3.7-45.6-17.6-17-17.2-21.7-34.5-15.1-56.8,9.6-32.1,43.3-49,75.8-38Z"/>
            <path class="cls-1" d="M409.5,792c-6,0-11.9-.5-17.9-1.5-22.3-3.8-43-14.8-59.8-31.6-5.9-5.9-11.1-12.3-15.5-19.1-4.4-6.7-8-13.8-10.8-21.2-2.8-7.3-4.7-15-5.8-22.7-1.1-7.8-1.3-15.7-.7-23.5,1.1-12.1,3.8-23.6,8.2-34.4,4.3-10.6,10.2-20.3,17.5-29,7.3-8.6,15.9-16.1,25.6-22.2,9.9-6.2,20.9-11,32.6-14.1h0c6.1-1.7,15-2.7,24.6-2.9.9,0,1.8,0,2.7,0,8.7,0,16.9.7,23.3,2.1,9.5,2,19.6,5.8,29,11.1,9.4,5.3,18.4,11.9,25.8,19.4s12.4,14,17.1,21.8c4.6,7.6,8.2,15.7,10.8,24.2,2.5,8.2,4.1,16.8,4.6,25.4.5,8.5,0,17.1-1.3,25.5-1.4,8.4-3.8,16.7-7.1,24.5-3.3,8-7.6,15.5-12.7,22.5-5.2,7.1-11.3,13.6-18.1,19.3-7,5.9-14.9,11-23.3,15.1-15.7,7.6-32.3,11.5-48.9,11.5ZM410.3,569.9c-10,0-20.1,1-27.1,2.9h0c-47.5,12.8-79.7,51-83.9,99.7-2.7,32,8.9,62.6,32.7,86.4,34.4,34.4,82.9,42.7,126.4,21.7,32.9-16,55.2-45.6,61.2-81.3,6-35.7-5.3-71-31.2-96.8s-35.5-26.4-54.7-30.4c-6.6-1.4-15-2.1-23.4-2.1ZM409,739c-6.2,0-12-1.1-17.7-3.2-7.6-2.9-14.7-7.7-21.6-14.7-8.6-8.7-13.9-17.3-16.4-26.5-2.5-9.2-2-19.1,1.3-30.3,4.6-15.3,14.8-27.7,28.8-34.9,7-3.6,14.6-5.7,22.5-6.3,8.2-.6,16.5.5,24.5,3.2h0c6.4,2.1,13.9,7.1,20.5,13.7,6.6,6.6,11.6,14,13.7,20.4,5.5,16,4.5,31-2.9,45.8-4.7,9.5-11,17-18.7,22.4-7.7,5.4-17,8.8-27.7,10.1-2.1.2-4.2.3-6.3.3ZM410.2,622.9c-9.3,0-18.5,2.2-26.9,6.5-14,7.2-24.2,19.6-28.7,34.8-6.5,22.1-1.8,39.6,15.1,56.8,13.9,13.9,28.3,19.4,45.5,17.6,21.4-2.7,37-13.6,46.4-32.5,7.4-14.8,8.3-29.7,2.9-45.7-4.5-13.4-20.7-29.6-34.1-34.1h0c-6.7-2.3-13.4-3.4-20.1-3.4Z"/>
          </g>
          <g>
            <path class="cls-1" d="M399.5,658.4c-17.4,7.6-18.4,32.5-2,43.3,6.5,4.3,19.8,4.1,26.8-.4,5.9-3.9,11-14.1,11-21.7s-7.2-17.4-14.1-21c-7.4-3.7-13.5-3.9-21.7-.2Z"/>
            <path class="cls-1" d="M410.2,704.8c-4.8,0-9.6-1-12.7-3.1-4.1-2.7-7.3-6.4-9.3-10.8-1.9-4.1-2.7-8.7-2.3-13.2.4-4.1,1.7-8.1,4-11.4,2.4-3.6,5.7-6.2,9.7-8,4-1.8,7.5-2.7,10.9-2.7s.2,0,.3,0c3.4,0,6.7,1,10.5,2.9,3.3,1.8,6.9,5.2,9.7,9.3,2.8,4.2,4.5,8.5,4.5,11.8s-1.2,8.1-3.3,12.2c-2.1,4.2-4.9,7.6-7.8,9.5-3.6,2.3-8.9,3.5-14.1,3.5ZM410.4,655.7c-3.4,0-6.9.9-10.8,2.7h0c-7.7,3.4-12.8,10.6-13.6,19.3-.8,9.5,3.6,18.7,11.5,23.9,6.5,4.3,19.8,4.1,26.7-.4,5.9-3.8,11-13.9,11-21.6s-1.6-7.6-4.4-11.7c-2.8-4.1-6.3-7.5-9.6-9.3-3.8-1.9-7.3-2.9-10.8-2.9Z"/>
          </g>
        </g>
      </g>
    </g>
  </g>
</svg>