<?xml version="1.0" encoding="UTF-8"?>
<svg xmlns="http://www.w3.org/2000/svg" version="1.1" viewBox="0 0 800 800">
  <defs>
    <style>
      .cls-1 {
        fill: #c98e18;
      }
    </style>
  </defs>
  <!-- Generator: Adobe Illustrator 28.6.0, SVG Export Plug-In . SVG Version: 1.2.0 Build 709)  -->
  <g>
    <g id="Layer_1">
      <g id="SVGRepo_iconCarrier">
        <g>
          <g>
            <path class="cls-1" d="M533.3,586.7h-13c3.2,120.6,48.7,213.3,106.4,213.3s37.7-10.8,53.3-29.7v-50.3c-4.5-75.7-67.6-133.3-146.7-133.3Z"/>
            <path class="cls-1" d="M626.7,800.8c-57.9,0-103.9-92-107.1-214.1v-.8s13.8,0,13.8,0c79.5,0,142.9,57.6,147.4,134.1v50.7s-.2.2-.2.2c-16.2,19.6-34.9,29.9-53.9,29.9ZM521.1,587.4c1.6,58.1,13.2,111.6,32.6,150.8,19.5,39.3,45.4,61,72.9,61s36.7-10.1,52.6-29.2v-50.1c-4.5-75.5-67.2-132.6-145.9-132.6h-12.2Z"/>
          </g>
          <g>
            <path class="cls-1" d="M546.7,427.5v-5.3c-15.3,36.8-25,84.5-26.4,137.8h13c93.4,0,167.9,68.5,173.3,159.2v5.2c15.3-36.8,25-84.5,26.4-137.8h-13c-93.4,0-167.9-68.4-173.3-159.2Z"/>
            <path class="cls-1" d="M705.9,728.4v-9.1c-5.4-90.3-79.5-158.4-172.5-158.4h-13.8v-.8c1.4-52.1,10.5-99.9,26.5-138.1l1.5-3.6v9.1c5.4,90.3,79.5,158.4,172.5,158.4h13.8v.8c-1.4,52.2-10.5,99.9-26.5,138.1l-1.5,3.6ZM521.1,559.2h12.2c93.8,0,168.7,68.8,174.1,159.9v1.3c14.9-37.2,23.4-83,24.8-133h-12.2c-93.8,0-168.7-68.8-174.1-159.9h0v-1.3c-14.9,37.2-23.4,83.1-24.8,133Z"/>
          </g>
          <g>
            <path class="cls-1" d="M720,560h13c-2.9-111.1-41.8-198.4-93-211.4v-85.7c15.8-8.8,26.7-32.8,26.7-62.9s-10.9-54.1-26.7-62.9v-43.8c0-7.4-6-13.3-13.3-13.3-14.7,0-26.7-12-26.7-26.7s12-26.7,26.7-26.7,26.7,12,26.7,26.7,2.9,80,40,80,13.3-6,13.3-13.3-6-13.3-13.3-13.3-13.3-22.4-13.3-53.3S656.1,0,626.7,0s-53.3,23.9-53.3,53.3,17,45.7,40,51.6v32.2c-15.8,8.8-26.7,32.8-26.7,62.9s10.9,54.1,26.7,62.9v85.6c-14.5,3.7-28,13.4-40,27.9v50.3c4.5,75.7,67.6,133.3,146.7,133.3Z"/>
            <path class="cls-1" d="M733.8,560.8h-13.8c-79.5,0-142.9-57.6-147.4-134.1v-50.7s.2-.2.2-.2c12.3-14.8,25.7-24.2,39.8-28v-84.5c-16.2-9.3-26.7-34.1-26.7-63.3s10.5-54,26.7-63.3v-31.1c-23.6-6.4-40-27.8-40-52.2S596.8-.8,626.7-.8s54.1,24.3,54.1,54.1,8.2,52.6,12.6,52.6c7.8,0,14.1,6.3,14.1,14.1s-6.3,14.1-14.1,14.1c-37.8,0-40.8-61.8-40.8-80.8s-11.6-25.9-25.9-25.9-25.9,11.6-25.9,25.9,11.6,25.9,25.9,25.9,14.1,6.3,14.1,14.1v43.4c16.2,9.3,26.7,34.1,26.7,63.3s-10.5,54-26.7,63.3v84.6c24.8,6.6,47.8,31.2,64.6,69.2,16.9,38.4,27.1,89.1,28.5,142.8v.8ZM574.1,376.6v50.1c4.5,75.5,67.2,132.5,145.9,132.5h12.2c-1.5-53.2-11.5-103.4-28.3-141.4-16.7-37.9-39.5-62.2-64.1-68.5h-.6v-86.9l.4-.2c16-8.9,26.3-33.3,26.3-62.2s-10.3-53.3-26.3-62.2l-.4-.2v-44.3c0-6.9-5.6-12.6-12.6-12.6-15.1,0-27.4-12.3-27.4-27.4s12.3-27.4,27.4-27.4,27.4,12.3,27.4,27.4,2.8,79.2,39.2,79.2,12.6-5.6,12.6-12.6-5.6-12.6-12.6-12.6-14.1-24.1-14.1-54.1S655.6.8,626.7.8s-52.6,23.6-52.6,52.6,16.2,44.9,39.4,50.9l.6.2v33.2l-.4.2c-16,8.9-26.3,33.3-26.3,62.2s10.3,53.3,26.3,62.2l.4.2v86.7l-.6.2c-14,3.6-27.3,12.8-39.4,27.4Z"/>
          </g>
          <g>
            <path class="cls-1" d="M93.4,427.5v-5.3c-15.3,36.8-25,84.5-26.4,137.8h13c93.4,0,167.9,68.5,173.3,159.2v5.2c15.3-36.8,25-84.5,26.4-137.8h-13c-93.4,0-167.9-68.4-173.3-159.2Z"/>
            <path class="cls-1" d="M252.5,728.4v-9.1c-5.4-90.3-79.5-158.4-172.5-158.4h-13.8v-.8c1.4-52.1,10.5-99.9,26.5-138.1l1.5-3.6v9.1c5.4,90.3,79.5,158.4,172.5,158.4h13.8v.8c-1.4,52.2-10.5,99.9-26.5,138.1l-1.5,3.6ZM67.8,559.2h12.2c93.8,0,168.7,68.8,174.1,159.9v1.3c14.9-37.2,23.4-83,24.8-133h-12.2c-93.8,0-168.7-68.8-174.1-159.9h0v-1.3c-14.9,37.2-23.4,83.1-24.8,133Z"/>
          </g>
          <g>
            <path class="cls-1" d="M186.7,348.6v-85.7c15.8-8.8,26.7-32.8,26.7-62.9s-10.9-54.1-26.7-62.8v-43.8c0-7.4-6-13.3-13.3-13.3-14.7,0-26.7-12-26.7-26.7s12-26.7,26.7-26.7,26.7,12,26.7,26.7,2.9,80,40,80,13.3-6,13.3-13.3-6-13.3-13.3-13.3-13.3-22.4-13.3-53.3c0-29.4-23.9-53.3-53.3-53.3s-53.3,23.9-53.3,53.3,17,45.7,40,51.6v32.2c-15.8,8.8-26.7,32.8-26.7,62.8s10.9,54.1,26.7,62.9v85.6c-14.5,3.7-28,13.4-40,27.9v50.3c4.5,75.7,67.6,133.3,146.7,133.3h13c-2.9-111.1-41.8-198.4-93-211.4Z"/>
            <path class="cls-1" d="M280.5,560.8h-13.8c-79.5,0-142.9-57.6-147.4-134.1v-50.7s.2-.2.2-.2c12.2-14.8,25.6-24.2,39.8-28v-84.5c-16.2-9.3-26.7-34.1-26.7-63.3s10.5-54,26.7-63.3v-31.1c-23.6-6.4-40-27.8-40-52.2S143.5-.8,173.3-.8s54.1,24.3,54.1,54.1c0,32.1,8.2,52.6,12.6,52.6,7.8,0,14.1,6.3,14.1,14.1s-6.3,14.1-14.1,14.1c-37.8,0-40.8-61.8-40.8-80.8s-11.6-25.9-25.9-25.9-25.9,11.6-25.9,25.9,11.6,25.9,25.9,25.9,14.1,6.3,14.1,14.1v43.4c16.2,9.3,26.7,34.1,26.7,63.3s-10.5,54-26.7,63.3v84.6c24.8,6.6,47.8,31.2,64.6,69.2,16.9,38.4,27.1,89.1,28.5,142.8v.8ZM120.8,376.6v50.1c4.5,75.5,67.2,132.6,145.9,132.6h12.2c-1.5-53.2-11.5-103.4-28.3-141.4-16.7-37.9-39.5-62.2-64.1-68.5h-.6v-86.9l.4-.2c16-8.9,26.3-33.3,26.3-62.2s-10.3-53.3-26.3-62.2l-.4-.2v-44.3c0-6.9-5.6-12.6-12.6-12.6-15.1,0-27.4-12.3-27.4-27.4s12.3-27.4,27.4-27.4,27.4,12.3,27.4,27.4,2.8,79.2,39.2,79.2,12.6-5.6,12.6-12.6-5.6-12.6-12.6-12.6-14.1-24.1-14.1-54.1c0-29-23.6-52.6-52.6-52.6s-52.6,23.6-52.6,52.6,16.2,44.9,39.4,50.9l.6.2v33.3l-.4.2c-16,8.9-26.3,33.3-26.3,62.2s10.3,53.3,26.3,62.2l.4.2v86.7l-.6.2c-14,3.6-27.3,12.8-39.4,27.4Z"/>
          </g>
          <g>
            <path class="cls-1" d="M80,586.7h-13c3.2,120.6,48.7,213.3,106.4,213.3s37.7-10.8,53.3-29.7v-50.3c-4.5-75.7-67.6-133.3-146.7-133.3Z"/>
            <path class="cls-1" d="M173.3,800.8c-57.9,0-103.9-92-107.1-214.1v-.8s13.8,0,13.8,0c79.5,0,142.9,57.6,147.4,134.1v50.7s-.2.2-.2.2c-16.2,19.6-34.9,29.9-53.9,29.9ZM67.8,587.4c1.6,58.1,13.2,111.6,32.6,150.8,19.5,39.3,45.4,61,72.9,61s36.7-10.1,52.6-29.2v-50.1c-4.5-75.5-67.2-132.6-145.9-132.6h-12.2Z"/>
          </g>
        </g>
      </g>
    </g>
  </g>
</svg>