<?xml version="1.0" encoding="UTF-8"?>
<svg xmlns="http://www.w3.org/2000/svg" version="1.1" viewBox="0 0 800 800">
  <defs>
    <style>
      .cls-1 {
        fill: #c98e18;
      }
    </style>
  </defs>
  <!-- Generator: Adobe Illustrator 28.6.0, SVG Export Plug-In . SVG Version: 1.2.0 Build 709)  -->
  <g>
    <g id="Layer_1">
      <g id="SVGRepo_iconCarrier">
        <g>
          <path class="cls-1" d="M763.3,0c-14.3,0-26,11.6-26,25.9v15.2c0,186-151.3,337.4-337.4,337.4S62.6,227.2,62.6,41.2v-15.2C62.6,11.6,51,0,36.7,0S10.7,11.6,10.7,25.9v15.2c0,208.7,162.7,375.3,363.3,388.4v66.7c-39.7-22.9-91.4-17.4-125.3,16.5-40.5,40.5-40.5,106.3,0,146.8l132.9,132.9c10.1,10.1,26.6,10.1,36.7,0l132.9-132.9c40.5-40.5,40.5-106.3,0-146.8-33.9-33.9-85.6-39.4-125.3-16.5v-66.7c200.7-13.1,363.3-179.7,363.3-388.4v-15.2c0-14.3-11.6-25.9-25.9-25.9ZM441.2,549.4c20.2-20.2,53.2-20.2,73.4,0,20.2,20.2,20.2,53.2,0,73.4l-114.5,114.5-114.5-114.5c-20.2-20.2-20.2-53.2,0-73.4,10.1-10.1,23.4-15.2,36.7-15.2s26.6,5.1,36.7,15.2l22.8,22.8c10,10,26.5,10.2,36.7,0l22.8-22.8Z"/>
          <path class="cls-1" d="M400,800.8c-7.1,0-13.9-2.8-18.9-7.8l-132.9-132.9c-19.7-19.7-30.6-46-30.6-73.9s10.9-54.2,30.6-73.9c33.1-33.1,84.3-40.1,125.1-17.3v-64.6c-97.8-6.6-188.9-49.5-256.6-121C47.8,236.7,10,141.5,10,41.2v-15.2C10,11.2,22-.8,36.7-.8s26.7,12,26.7,26.7v15.2c0,185.6,151,336.6,336.6,336.6S736.6,226.7,736.6,41.2v-15.2c0-14.7,12-26.7,26.7-26.7s26.7,12,26.7,26.7v15.2c0,100.3-37.9,195.5-106.6,268.1-67.8,71.5-158.9,114.5-256.7,121.1v64.6c40.7-22.8,92-15.8,125.1,17.3s30.6,46,30.6,73.9-10.9,54.2-30.6,73.9l-132.9,132.9c-5,5-11.8,7.8-18.9,7.8ZM322.2,483.1c-26.7,0-53.1,10.3-72.9,30.1-19.4,19.4-30.1,45.3-30.1,72.8s10.7,53.4,30.1,72.8l132.9,132.9c4.8,4.8,11.1,7.4,17.8,7.4s13-2.6,17.8-7.4l132.9-132.9c19.4-19.4,30.1-45.3,30.1-72.8s-10.7-53.4-30.1-72.8c-32.9-32.9-84-39.6-124.4-16.4l-1.2.7v-68.8h.7c203.3-13.3,362.6-183.6,362.6-387.7v-15.2c0-13.9-11.3-25.2-25.2-25.2s-25.2,11.3-25.2,25.2v15.2c0,186.4-151.7,338.1-338.1,338.1S61.9,227.6,61.9,41.2v-15.2C61.9,12.1,50.6.8,36.7.8S11.5,12.1,11.5,26v15.2c0,204.1,159.3,374.3,362.6,387.6h.7v68.8l-1.2-.7c-16-9.3-33.8-13.8-51.4-13.8ZM400,738.5l-.6-.6-114.5-114.5c-9.9-9.9-15.4-23.2-15.4-37.2s5.5-27.3,15.4-37.2c9.9-9.9,23.2-15.4,37.2-15.4s27.3,5.5,37.2,15.4l22.8,22.8c4.7,4.7,11,7.3,17.7,7.4h0c6.7,0,13-2.6,17.8-7.4l22.8-22.8.6.6-.6-.6c9.9-9.9,23.2-15.4,37.2-15.4s27.3,5.5,37.2,15.4c20.5,20.5,20.5,54,0,74.5l-115.1,115.1ZM322.1,535c-13.7,0-26.5,5.3-36.1,14.9-9.6,9.6-14.9,22.5-14.9,36.1s5.3,26.5,14.9,36.1l114,114,114-114c19.9-19.9,19.9-52.4,0-72.3-9.6-9.6-22.5-14.9-36.1-14.9s-26.5,5.3-36.1,14.9l-22.8,22.8c-5,5-11.7,7.8-18.9,7.8h0c-7.1,0-13.8-2.8-18.8-7.8l-22.8-22.8c-9.6-9.6-22.5-14.9-36.1-14.9Z"/>
        </g>
      </g>
    </g>
  </g>
</svg>